<svg xmlns="http://www.w3.org/2000/svg" xmlns:xlink="http://www.w3.org/1999/xlink" width="500" zoomAndPan="magnify" viewBox="0 0 375 374.999991" height="500" preserveAspectRatio="xMidYMid meet" version="1.0"><defs><clipPath id="2a9f5d8a43"><path d="M 18.605469 18.605469 L 356.105469 18.605469 L 356.105469 356.105469 L 18.605469 356.105469 Z M 18.605469 18.605469 " clip-rule="nonzero"/></clipPath><clipPath id="c77b57b106"><path d="M 111.179688 111.179688 L 264.179688 111.179688 L 264.179688 226 L 111.179688 226 Z M 111.179688 111.179688 " clip-rule="nonzero"/></clipPath><clipPath id="36c0707e05"><path d="M 143 236 L 232 236 L 232 264.179688 L 143 264.179688 Z M 143 236 " clip-rule="nonzero"/></clipPath><clipPath id="6b84452309"><path d="M 111.179688 198 L 264.179688 198 L 264.179688 210 L 111.179688 210 Z M 111.179688 198 " clip-rule="nonzero"/></clipPath></defs><g clip-path="url(#2a9f5d8a43)"><path fill="#000000" d="M 187.355469 356.105469 C 142.265625 356.105469 99.875 338.554688 68.015625 306.695312 C 36.15625 274.835938 18.605469 232.445312 18.605469 187.355469 C 18.605469 142.265625 36.15625 99.875 68.015625 68.015625 C 99.875 36.15625 142.265625 18.605469 187.355469 18.605469 C 232.445312 18.605469 274.835938 36.15625 306.695312 68.015625 C 338.554688 99.875 356.105469 142.265625 356.105469 187.355469 C 356.105469 232.445312 338.554688 274.835938 306.695312 306.695312 C 274.835938 338.554688 232.445312 356.105469 187.355469 356.105469 Z M 187.355469 25.355469 C 98.054688 25.355469 25.355469 98.054688 25.355469 187.355469 C 25.355469 276.660156 98.054688 349.355469 187.355469 349.355469 C 276.660156 349.355469 349.355469 276.660156 349.355469 187.355469 C 349.355469 98.054688 276.660156 25.355469 187.355469 25.355469 Z M 187.355469 25.355469 " fill-opacity="1" fill-rule="nonzero"/></g><path fill="#000000" d="M 187.355469 316.617188 C 116.078125 316.617188 58.09375 258.636719 58.09375 187.355469 C 58.09375 116.078125 116.078125 58.09375 187.355469 58.09375 C 258.636719 58.09375 316.617188 116.078125 316.617188 187.355469 C 316.617188 258.636719 258.636719 316.617188 187.355469 316.617188 Z M 187.355469 64.84375 C 119.789062 64.84375 64.84375 119.789062 64.84375 187.355469 C 64.84375 254.925781 119.789062 309.867188 187.355469 309.867188 C 254.925781 309.867188 309.867188 254.925781 309.867188 187.355469 C 309.867188 119.789062 254.925781 64.84375 187.355469 64.84375 Z M 187.355469 64.84375 " fill-opacity="1" fill-rule="nonzero"/><path fill="#000000" d="M 188.910156 339.027344 L 188.773438 326.878906 C 189.652344 326.878906 190.527344 326.878906 191.339844 326.8125 L 191.675781 338.960938 C 190.800781 338.960938 189.855469 339.027344 188.910156 339.027344 Z M 181.890625 338.894531 C 180.945312 338.894531 180 338.828125 179.054688 338.757812 L 179.730469 326.609375 C 180.605469 326.675781 181.484375 326.675781 182.292969 326.742188 Z M 198.695312 338.625 L 197.820312 326.542969 C 198.695312 326.472656 199.507812 326.40625 200.382812 326.339844 L 201.53125 338.421875 C 200.585938 338.421875 199.640625 338.554688 198.695312 338.625 Z M 172.035156 338.285156 C 171.089844 338.21875 170.144531 338.085938 169.265625 337.949219 L 170.683594 325.867188 C 171.5625 325.933594 172.371094 326.070312 173.25 326.136719 Z M 208.484375 337.542969 L 206.796875 325.527344 C 207.675781 325.394531 208.484375 325.257812 209.363281 325.125 L 211.25 337.140625 C 210.375 337.273438 209.429688 337.410156 208.484375 337.542969 Z M 162.3125 337.003906 C 161.367188 336.867188 160.492188 336.667969 159.546875 336.53125 L 161.773438 324.585938 C 162.652344 324.71875 163.460938 324.921875 164.339844 325.054688 Z M 218.203125 335.855469 L 215.707031 323.976562 C 216.585938 323.773438 217.394531 323.640625 218.273438 323.4375 L 220.972656 335.316406 C 220.027344 335.453125 219.148438 335.652344 218.203125 335.855469 Z M 152.660156 335.046875 C 151.714844 334.84375 150.839844 334.640625 149.894531 334.371094 L 152.863281 322.625 C 153.675781 322.828125 154.550781 323.03125 155.363281 323.234375 Z M 227.789062 333.5625 L 224.550781 321.816406 C 225.359375 321.613281 226.238281 321.34375 227.046875 321.074219 L 230.488281 332.75 C 229.542969 333.023438 228.667969 333.292969 227.789062 333.5625 Z M 143.144531 332.480469 C 142.265625 332.210938 141.320312 331.941406 140.445312 331.605469 L 144.222656 320.0625 C 145.035156 320.332031 145.84375 320.601562 146.722656 320.804688 Z M 237.171875 330.589844 L 233.1875 319.117188 C 234 318.847656 234.808594 318.507812 235.617188 318.238281 L 239.804688 329.648438 C 238.925781 329.984375 238.050781 330.320312 237.171875 330.589844 Z M 133.828125 329.308594 C 132.953125 328.972656 132.074219 328.632812 131.195312 328.296875 L 135.71875 317.023438 C 136.527344 317.363281 137.339844 317.632812 138.148438 317.96875 Z M 246.351562 327.082031 L 241.625 315.875 C 242.4375 315.539062 243.179688 315.203125 243.988281 314.863281 L 248.917969 325.933594 C 248.039062 326.339844 247.160156 326.742188 246.351562 327.082031 Z M 124.714844 325.597656 C 123.839844 325.191406 123.027344 324.785156 122.152344 324.382812 L 127.347656 313.445312 C 128.160156 313.785156 128.902344 314.1875 129.710938 314.527344 Z M 255.261719 322.964844 L 249.792969 312.097656 C 250.535156 311.691406 251.347656 311.285156 252.089844 310.949219 L 257.757812 321.679688 C 256.882812 322.152344 256.070312 322.558594 255.261719 322.964844 Z M 115.804688 321.210938 C 114.996094 320.738281 114.1875 320.332031 113.308594 319.859375 L 119.25 309.261719 C 119.992188 309.667969 120.734375 310.070312 121.542969 310.476562 Z M 263.902344 318.304688 L 257.757812 307.84375 C 258.5 307.4375 259.242188 306.964844 259.988281 306.492188 L 266.332031 316.890625 C 265.453125 317.363281 264.710938 317.835938 263.902344 318.304688 Z M 107.300781 316.28125 C 106.492188 315.808594 105.679688 315.269531 104.9375 314.796875 L 111.554688 304.605469 C 112.296875 305.078125 113.039062 305.550781 113.714844 306.023438 Z M 272.203125 313.042969 L 265.386719 302.984375 C 266.128906 302.511719 266.804688 302.039062 267.480469 301.5 L 274.5 311.421875 C 273.757812 311.960938 272.945312 312.5 272.203125 313.042969 Z M 99.132812 310.8125 C 98.390625 310.273438 97.582031 309.734375 96.839844 309.125 L 104.0625 299.339844 C 104.738281 299.878906 105.480469 300.351562 106.152344 300.890625 Z M 280.167969 307.304688 L 272.742188 297.71875 C 273.417969 297.179688 274.09375 296.640625 274.769531 296.097656 L 282.398438 305.550781 C 281.652344 306.15625 280.910156 306.695312 280.167969 307.304688 Z M 91.304688 304.804688 C 90.5625 304.199219 89.886719 303.589844 89.144531 302.984375 L 96.972656 293.738281 C 97.648438 294.277344 98.324219 294.816406 98.929688 295.355469 Z M 287.730469 301.027344 L 279.695312 291.914062 C 280.371094 291.375 280.980469 290.765625 281.585938 290.160156 L 289.820312 299.136719 C 289.148438 299.742188 288.402344 300.417969 287.730469 301.027344 Z M 83.878906 298.394531 C 83.203125 297.785156 82.527344 297.113281 81.855469 296.4375 L 90.292969 287.730469 C 90.898438 288.335938 91.507812 288.945312 92.179688 289.484375 Z M 294.882812 294.277344 L 286.242188 285.703125 C 286.851562 285.097656 287.460938 284.488281 288.066406 283.882812 L 296.839844 292.25 C 296.167969 292.925781 295.558594 293.601562 294.882812 294.277344 Z M 76.859375 291.441406 C 76.183594 290.765625 75.578125 290.089844 74.96875 289.347656 L 83.945312 281.179688 C 84.554688 281.789062 85.09375 282.464844 85.703125 283.070312 Z M 301.566406 287.054688 L 292.453125 279.023438 C 292.992188 278.347656 293.601562 277.738281 294.140625 277.0625 L 303.457031 284.894531 C 302.78125 285.636719 302.175781 286.378906 301.566406 287.054688 Z M 70.378906 284.085938 C 69.773438 283.339844 69.164062 282.667969 68.625 281.925781 L 78.140625 274.363281 C 78.679688 275.039062 79.222656 275.714844 79.761719 276.390625 Z M 307.84375 279.425781 L 298.191406 272.070312 C 298.730469 271.394531 299.203125 270.71875 299.742188 269.976562 L 309.53125 277.199219 C 308.925781 277.941406 308.382812 278.683594 307.84375 279.425781 Z M 64.371094 276.320312 C 63.832031 275.578125 63.292969 274.835938 62.75 274.027344 L 72.742188 267.074219 C 73.214844 267.75 73.753906 268.492188 74.226562 269.167969 Z M 313.582031 271.460938 L 303.457031 264.710938 C 303.929688 263.96875 304.402344 263.292969 304.875 262.550781 L 315.132812 269.097656 C 314.59375 269.839844 314.054688 270.652344 313.582031 271.460938 Z M 58.835938 268.152344 C 58.363281 267.34375 57.824219 266.535156 57.351562 265.792969 L 67.746094 259.515625 C 68.21875 260.257812 68.625 261 69.097656 261.742188 Z M 318.777344 263.089844 L 308.25 257.015625 C 308.652344 256.273438 309.125 255.53125 309.53125 254.789062 L 320.195312 260.660156 C 319.65625 261.472656 319.25 262.28125 318.777344 263.089844 Z M 53.839844 259.714844 C 53.367188 258.90625 52.964844 258.097656 52.492188 257.21875 L 63.292969 251.617188 C 63.695312 252.359375 64.101562 253.167969 64.507812 253.910156 Z M 323.367188 254.382812 L 312.5 248.984375 C 312.90625 248.242188 313.242188 247.429688 313.648438 246.621094 L 324.652344 251.820312 C 324.246094 252.695312 323.839844 253.574219 323.367188 254.382812 Z M 49.453125 250.941406 C 49.050781 250.0625 48.710938 249.253906 48.304688 248.375 L 59.445312 243.449219 C 59.78125 244.257812 60.117188 245 60.523438 245.8125 Z M 327.488281 245.40625 L 316.28125 240.75 C 316.617188 239.9375 316.957031 239.128906 317.226562 238.320312 L 328.5 242.773438 C 328.160156 243.652344 327.824219 244.527344 327.488281 245.40625 Z M 45.605469 241.898438 C 45.269531 241.019531 44.929688 240.140625 44.59375 239.265625 L 56 235.078125 C 56.273438 235.890625 56.609375 236.699219 56.878906 237.507812 Z M 330.996094 236.160156 L 319.523438 232.242188 C 319.792969 231.433594 320.0625 230.625 320.332031 229.746094 L 331.875 233.460938 C 331.535156 234.402344 331.265625 235.28125 330.996094 236.160156 Z M 42.367188 232.582031 C 42.097656 231.703125 41.828125 230.828125 41.554688 229.882812 L 53.234375 226.4375 C 53.503906 227.25 53.707031 228.125 53.976562 228.9375 Z M 333.832031 226.777344 L 322.085938 223.605469 C 322.289062 222.792969 322.492188 221.917969 322.761719 221.105469 L 334.574219 224.007812 C 334.304688 224.953125 334.101562 225.832031 333.832031 226.777344 Z M 39.734375 223.132812 C 39.53125 222.253906 39.328125 221.308594 39.125 220.363281 L 51.007812 217.730469 C 51.210938 218.542969 51.410156 219.417969 51.613281 220.230469 Z M 336.058594 217.191406 L 324.179688 214.828125 C 324.3125 214.019531 324.515625 213.140625 324.652344 212.265625 L 336.597656 214.425781 C 336.464844 215.300781 336.261719 216.246094 336.058594 217.191406 Z M 37.710938 213.480469 C 37.574219 212.535156 37.371094 211.65625 37.238281 210.710938 L 49.25 208.820312 C 49.386719 209.699219 49.523438 210.507812 49.65625 211.386719 Z M 337.679688 207.472656 L 325.664062 205.851562 C 325.800781 204.972656 325.867188 204.164062 326 203.285156 L 338.085938 204.636719 C 337.949219 205.582031 337.8125 206.527344 337.679688 207.472656 Z M 36.359375 203.757812 C 36.292969 202.8125 36.15625 201.867188 36.089844 200.992188 L 48.171875 199.910156 C 48.238281 200.789062 48.304688 201.597656 48.441406 202.476562 Z M 338.691406 197.683594 L 326.542969 196.875 C 326.609375 195.996094 326.675781 195.1875 326.675781 194.308594 L 338.828125 194.917969 C 338.757812 195.792969 338.757812 196.738281 338.691406 197.683594 Z M 35.617188 193.902344 C 35.550781 192.960938 35.550781 192.015625 35.550781 191.136719 L 47.699219 190.800781 C 47.699219 191.675781 47.765625 192.554688 47.765625 193.363281 Z M 339.027344 187.828125 L 326.878906 187.761719 L 326.878906 187.222656 C 326.878906 186.546875 326.878906 185.871094 326.878906 185.195312 L 339.027344 184.992188 C 339.027344 185.738281 339.027344 186.480469 339.027344 187.222656 Z M 47.632812 184.320312 L 35.480469 184.050781 C 35.480469 183.105469 35.550781 182.160156 35.550781 181.214844 L 47.699219 181.6875 C 47.699219 182.632812 47.699219 183.507812 47.632812 184.320312 Z M 326.609375 178.714844 C 326.542969 177.839844 326.472656 176.960938 326.40625 176.152344 L 338.554688 175.207031 C 338.625 176.152344 338.691406 177.097656 338.757812 178.042969 Z M 48.105469 175.273438 L 36.023438 174.261719 C 36.089844 173.316406 36.15625 172.371094 36.292969 171.492188 L 48.375 172.710938 C 48.304688 173.585938 48.238281 174.464844 48.105469 175.273438 Z M 325.800781 169.738281 C 325.664062 168.863281 325.597656 168.050781 325.460938 167.175781 L 337.476562 165.417969 C 337.613281 166.363281 337.746094 167.242188 337.882812 168.1875 Z M 49.183594 166.296875 L 37.167969 164.472656 C 37.304688 163.527344 37.4375 162.652344 37.640625 161.707031 L 49.589844 163.730469 C 49.453125 164.609375 49.320312 165.488281 49.183594 166.296875 Z M 324.382812 160.761719 C 324.246094 159.882812 324.042969 159.074219 323.839844 158.195312 L 335.722656 155.699219 C 335.925781 156.644531 336.125 157.523438 336.261719 158.464844 Z M 50.804688 157.386719 L 38.925781 154.820312 C 39.125 153.875 39.328125 153 39.53125 152.054688 L 51.34375 154.890625 C 51.210938 155.699219 51.007812 156.578125 50.804688 157.386719 Z M 322.355469 151.988281 C 322.152344 151.175781 321.882812 150.300781 321.679688 149.488281 L 333.359375 146.179688 C 333.628906 147.058594 333.832031 148.003906 334.101562 148.882812 Z M 53.03125 148.613281 L 41.355469 145.238281 C 41.625 144.359375 41.894531 143.414062 42.164062 142.535156 L 53.773438 146.113281 C 53.503906 146.992188 53.300781 147.800781 53.03125 148.613281 Z M 319.792969 143.277344 C 319.523438 142.46875 319.25 141.660156 318.980469 140.847656 L 330.457031 136.800781 C 330.792969 137.675781 331.0625 138.554688 331.335938 139.429688 Z M 55.800781 140.039062 L 44.390625 135.921875 C 44.730469 135.042969 45.066406 134.167969 45.402344 133.289062 L 56.742188 137.609375 C 56.40625 138.351562 56.136719 139.160156 55.800781 140.039062 Z M 316.6875 134.773438 C 316.347656 133.964844 316.011719 133.152344 315.675781 132.410156 L 326.878906 127.617188 C 327.214844 128.496094 327.621094 129.304688 327.960938 130.183594 Z M 59.175781 131.601562 L 48.035156 126.742188 C 48.441406 125.863281 48.777344 125.054688 49.183594 124.175781 L 60.253906 129.238281 C 59.847656 129.980469 59.511719 130.792969 59.175781 131.601562 Z M 313.042969 126.539062 C 312.636719 125.796875 312.300781 124.988281 311.894531 124.242188 L 322.761719 118.777344 C 323.167969 119.585938 323.570312 120.464844 323.976562 121.273438 Z M 63.089844 123.367188 L 52.289062 117.832031 C 52.695312 117.023438 53.167969 116.144531 53.570312 115.335938 L 64.238281 121.070312 C 63.832031 121.882812 63.425781 122.625 63.089844 123.367188 Z M 308.789062 118.507812 C 308.382812 117.765625 307.910156 117.023438 307.507812 116.277344 L 317.96875 110.070312 C 318.441406 110.878906 318.914062 111.6875 319.386719 112.5 Z M 67.476562 115.46875 L 57.082031 109.191406 C 57.554688 108.382812 58.027344 107.570312 58.566406 106.761719 L 68.894531 113.175781 C 68.355469 113.984375 67.949219 114.726562 67.476562 115.46875 Z M 304.132812 110.8125 C 303.660156 110.070312 303.1875 109.394531 302.714844 108.652344 L 312.773438 101.835938 C 313.3125 102.578125 313.851562 103.386719 314.324219 104.195312 Z M 72.402344 107.839844 L 62.414062 100.957031 C 62.953125 100.214844 63.492188 99.402344 64.035156 98.660156 L 73.890625 105.75 C 73.347656 106.425781 72.875 107.167969 72.402344 107.839844 Z M 298.933594 103.453125 C 298.394531 102.777344 297.921875 102.105469 297.382812 101.429688 L 306.964844 93.9375 C 307.574219 94.679688 308.113281 95.421875 308.652344 96.164062 Z M 77.804688 100.550781 L 68.285156 92.992188 C 68.894531 92.25 69.433594 91.507812 70.042969 90.832031 L 79.425781 98.527344 C 78.882812 99.203125 78.34375 99.875 77.804688 100.550781 Z M 293.265625 96.367188 C 292.722656 95.691406 292.117188 95.085938 291.578125 94.410156 L 300.621094 86.308594 C 301.230469 86.984375 301.835938 87.726562 302.445312 88.402344 Z M 83.609375 93.667969 L 74.632812 85.5 C 75.238281 84.824219 75.914062 84.082031 76.523438 83.40625 L 85.363281 91.710938 C 84.824219 92.382812 84.214844 92.992188 83.609375 93.667969 Z M 287.121094 89.683594 C 286.515625 89.078125 285.90625 88.46875 285.300781 87.863281 L 293.804688 79.222656 C 294.480469 79.898438 295.152344 80.570312 295.761719 81.246094 Z M 89.953125 87.117188 L 81.449219 78.410156 C 82.125 77.738281 82.800781 77.128906 83.472656 76.453125 L 91.777344 85.296875 C 91.167969 85.972656 90.5625 86.511719 89.953125 87.117188 Z M 280.574219 83.40625 C 279.898438 82.800781 279.292969 82.257812 278.617188 81.71875 L 286.582031 72.539062 C 287.257812 73.148438 288 73.753906 288.675781 74.429688 Z M 96.636719 81.042969 L 88.738281 71.796875 C 89.480469 71.1875 90.15625 70.582031 90.898438 69.972656 L 98.59375 79.355469 C 97.917969 79.964844 97.242188 80.503906 96.636719 81.042969 Z M 273.6875 77.601562 C 273.015625 77.0625 272.339844 76.523438 271.664062 76.050781 L 279.023438 66.398438 C 279.765625 66.9375 280.507812 67.542969 281.25 68.152344 Z M 103.65625 75.375 L 96.367188 65.652344 C 97.109375 65.113281 97.851562 64.507812 98.660156 63.964844 L 105.75 73.820312 C 105.074219 74.363281 104.398438 74.902344 103.65625 75.375 Z M 266.398438 72.203125 C 265.65625 71.730469 264.980469 71.257812 264.238281 70.785156 L 270.921875 60.660156 C 271.730469 61.199219 272.472656 61.671875 273.285156 62.210938 Z M 111.082031 70.175781 L 104.464844 59.984375 C 105.277344 59.445312 106.019531 58.972656 106.828125 58.5 L 113.242188 68.828125 C 112.566406 69.300781 111.824219 69.773438 111.082031 70.175781 Z M 258.773438 67.339844 C 258.027344 66.867188 257.285156 66.464844 256.542969 66.058594 L 262.550781 55.527344 C 263.363281 56 264.171875 56.472656 264.980469 56.945312 Z M 118.84375 65.519531 L 112.902344 54.921875 C 113.714844 54.449219 114.523438 54.042969 115.335938 53.570312 L 121.070312 64.238281 C 120.328125 64.710938 119.585938 65.113281 118.84375 65.519531 Z M 250.804688 62.886719 C 250.0625 62.480469 249.253906 62.078125 248.511719 61.738281 L 253.84375 50.804688 C 254.722656 51.210938 255.53125 51.613281 256.339844 52.085938 Z M 126.808594 61.335938 L 121.542969 50.398438 C 122.355469 49.992188 123.230469 49.589844 124.109375 49.183594 L 129.171875 60.253906 C 128.363281 60.589844 127.617188 60.996094 126.808594 61.335938 Z M 242.640625 59.039062 C 241.828125 58.703125 241.019531 58.363281 240.277344 58.027344 L 244.867188 46.753906 C 245.742188 47.089844 246.621094 47.496094 247.5 47.835938 Z M 135.113281 57.6875 L 130.589844 46.417969 C 131.464844 46.078125 132.34375 45.742188 133.222656 45.402344 L 137.542969 56.742188 C 136.664062 57.082031 135.921875 57.351562 135.113281 57.6875 Z M 234.203125 55.730469 C 233.390625 55.460938 232.582031 55.191406 231.773438 54.855469 L 235.617188 43.3125 C 236.496094 43.582031 237.375 43.917969 238.320312 44.257812 Z M 143.617188 54.585938 L 139.835938 43.042969 C 140.714844 42.773438 141.589844 42.433594 142.535156 42.164062 L 146.113281 53.773438 C 145.238281 54.042969 144.425781 54.3125 143.617188 54.585938 Z M 225.5625 52.964844 C 224.75 52.761719 223.875 52.492188 223.0625 52.289062 L 226.167969 40.542969 C 227.046875 40.8125 227.992188 41.015625 228.867188 41.285156 Z M 152.257812 52.019531 L 149.21875 40.273438 C 150.097656 40.070312 151.042969 39.800781 151.917969 39.597656 L 154.753906 51.410156 C 153.945312 51.613281 153.132812 51.816406 152.257812 52.019531 Z M 216.785156 50.738281 C 215.976562 50.535156 215.097656 50.398438 214.222656 50.195312 L 216.585938 38.25 C 217.527344 38.453125 218.40625 38.585938 219.351562 38.789062 Z M 161.097656 50.0625 L 158.871094 38.113281 C 159.816406 37.910156 160.695312 37.777344 161.640625 37.640625 L 163.664062 49.589844 C 162.785156 49.792969 161.976562 49.925781 161.097656 50.0625 Z M 207.875 49.117188 C 207 48.980469 206.1875 48.847656 205.3125 48.777344 L 206.863281 36.695312 C 207.808594 36.832031 208.753906 36.964844 209.632812 37.101562 Z M 170.078125 48.710938 L 168.589844 36.628906 C 169.535156 36.492188 170.480469 36.425781 171.359375 36.292969 L 172.640625 48.375 C 171.765625 48.507812 170.886719 48.578125 170.078125 48.710938 Z M 198.898438 48.105469 C 198.023438 48.035156 197.210938 47.96875 196.335938 47.902344 L 197.144531 35.75 C 198.089844 35.820312 199.035156 35.886719 199.980469 35.953125 Z M 179.054688 47.835938 L 178.378906 35.683594 C 179.324219 35.617188 180.269531 35.617188 181.214844 35.550781 L 181.6875 47.699219 C 180.808594 47.765625 179.929688 47.835938 179.054688 47.835938 Z M 189.855469 47.632812 C 188.976562 47.632812 188.097656 47.632812 187.289062 47.632812 L 187.289062 35.480469 C 188.234375 35.480469 189.179688 35.480469 190.125 35.480469 Z M 189.855469 47.632812 " fill-opacity="1" fill-rule="nonzero"/><g clip-path="url(#c77b57b106)"><path fill="#000000" d="M 258.714844 225.929688 L 116.644531 225.929688 C 116.285156 225.929688 115.929688 225.894531 115.578125 225.824219 C 115.226562 225.753906 114.886719 225.652344 114.554688 225.515625 C 114.222656 225.378906 113.90625 225.210938 113.609375 225.011719 C 113.3125 224.808594 113.035156 224.585938 112.78125 224.332031 C 112.527344 224.078125 112.300781 223.800781 112.101562 223.503906 C 111.902344 223.203125 111.734375 222.890625 111.597656 222.558594 C 111.460938 222.226562 111.355469 221.882812 111.285156 221.53125 C 111.214844 221.179688 111.179688 220.824219 111.179688 220.464844 L 111.179688 116.644531 C 111.179688 116.285156 111.214844 115.929688 111.285156 115.578125 C 111.355469 115.226562 111.460938 114.886719 111.597656 114.554688 C 111.734375 114.222656 111.902344 113.90625 112.101562 113.609375 C 112.300781 113.3125 112.527344 113.035156 112.78125 112.78125 C 113.035156 112.527344 113.3125 112.300781 113.609375 112.101562 C 113.90625 111.902344 114.222656 111.734375 114.554688 111.597656 C 114.886719 111.460938 115.226562 111.355469 115.578125 111.285156 C 115.929688 111.214844 116.285156 111.179688 116.644531 111.179688 L 258.714844 111.179688 C 259.074219 111.179688 259.429688 111.214844 259.78125 111.285156 C 260.132812 111.355469 260.476562 111.460938 260.808594 111.597656 C 261.140625 111.734375 261.453125 111.902344 261.753906 112.101562 C 262.050781 112.300781 262.328125 112.527344 262.582031 112.78125 C 262.835938 113.035156 263.058594 113.3125 263.261719 113.609375 C 263.460938 113.90625 263.628906 114.222656 263.765625 114.554688 C 263.902344 114.886719 264.003906 115.226562 264.074219 115.578125 C 264.144531 115.929688 264.179688 116.285156 264.179688 116.644531 L 264.179688 220.464844 C 264.179688 220.824219 264.144531 221.179688 264.074219 221.53125 C 264.003906 221.882812 263.902344 222.226562 263.765625 222.558594 C 263.628906 222.890625 263.460938 223.203125 263.261719 223.503906 C 263.058594 223.800781 262.835938 224.078125 262.582031 224.332031 C 262.328125 224.585938 262.050781 224.808594 261.753906 225.011719 C 261.453125 225.210938 261.140625 225.378906 260.808594 225.515625 C 260.476562 225.652344 260.132812 225.753906 259.78125 225.824219 C 259.429688 225.894531 259.074219 225.929688 258.714844 225.929688 Z M 122.109375 215.003906 L 253.253906 215.003906 L 253.253906 122.109375 L 122.109375 122.109375 Z M 122.109375 215.003906 " fill-opacity="1" fill-rule="nonzero"/></g><path fill="#000000" d="M 198.609375 247.789062 L 176.753906 247.789062 C 176.394531 247.789062 176.039062 247.753906 175.6875 247.683594 C 175.335938 247.613281 174.992188 247.507812 174.660156 247.371094 C 174.328125 247.234375 174.015625 247.066406 173.714844 246.867188 C 173.417969 246.667969 173.140625 246.441406 172.886719 246.1875 C 172.632812 245.933594 172.40625 245.65625 172.207031 245.359375 C 172.007812 245.0625 171.839844 244.746094 171.703125 244.414062 C 171.566406 244.082031 171.460938 243.742188 171.394531 243.390625 C 171.324219 243.039062 171.289062 242.683594 171.289062 242.324219 L 171.289062 220.464844 C 171.289062 220.109375 171.324219 219.753906 171.394531 219.402344 C 171.460938 219.046875 171.566406 218.707031 171.703125 218.375 C 171.839844 218.042969 172.007812 217.730469 172.207031 217.429688 C 172.40625 217.132812 172.632812 216.855469 172.886719 216.601562 C 173.140625 216.347656 173.417969 216.121094 173.714844 215.921875 C 174.015625 215.722656 174.328125 215.554688 174.660156 215.417969 C 174.992188 215.28125 175.335938 215.175781 175.6875 215.105469 C 176.039062 215.039062 176.394531 215.003906 176.753906 215.003906 L 198.609375 215.003906 C 198.96875 215.003906 199.324219 215.039062 199.675781 215.105469 C 200.027344 215.175781 200.367188 215.28125 200.699219 215.417969 C 201.03125 215.554688 201.347656 215.722656 201.644531 215.921875 C 201.945312 216.121094 202.21875 216.347656 202.472656 216.601562 C 202.726562 216.855469 202.953125 217.132812 203.152344 217.429688 C 203.351562 217.730469 203.519531 218.042969 203.65625 218.375 C 203.796875 218.707031 203.898438 219.046875 203.96875 219.402344 C 204.039062 219.753906 204.074219 220.109375 204.074219 220.464844 L 204.074219 242.324219 C 204.074219 242.683594 204.039062 243.039062 203.96875 243.390625 C 203.898438 243.742188 203.796875 244.082031 203.65625 244.414062 C 203.519531 244.746094 203.351562 245.0625 203.152344 245.359375 C 202.953125 245.65625 202.726562 245.933594 202.472656 246.1875 C 202.21875 246.441406 201.945312 246.667969 201.644531 246.867188 C 201.347656 247.066406 201.03125 247.234375 200.699219 247.371094 C 200.367188 247.507812 200.027344 247.613281 199.675781 247.683594 C 199.324219 247.753906 198.96875 247.789062 198.609375 247.789062 Z M 182.214844 236.859375 L 193.144531 236.859375 L 193.144531 225.929688 L 182.214844 225.929688 Z M 182.214844 236.859375 " fill-opacity="1" fill-rule="nonzero"/><g clip-path="url(#36c0707e05)"><path fill="#000000" d="M 225.929688 264.179688 L 149.429688 264.179688 C 149.070312 264.179688 148.714844 264.144531 148.363281 264.074219 C 148.011719 264.003906 147.671875 263.902344 147.339844 263.765625 C 147.007812 263.628906 146.691406 263.460938 146.394531 263.261719 C 146.097656 263.058594 145.820312 262.835938 145.566406 262.582031 C 145.3125 262.328125 145.085938 262.050781 144.886719 261.753906 C 144.6875 261.453125 144.519531 261.140625 144.382812 260.808594 C 144.246094 260.476562 144.140625 260.132812 144.070312 259.78125 C 144 259.429688 143.964844 259.074219 143.964844 258.714844 C 143.964844 258 144 257.285156 144.070312 256.574219 C 144.140625 255.863281 144.246094 255.15625 144.386719 254.453125 C 144.527344 253.75 144.699219 253.058594 144.90625 252.371094 C 145.117188 251.6875 145.355469 251.011719 145.628906 250.351562 C 145.902344 249.691406 146.210938 249.042969 146.546875 248.414062 C 146.886719 247.78125 147.253906 247.167969 147.648438 246.574219 C 148.046875 245.976562 148.472656 245.402344 148.929688 244.851562 C 149.382812 244.296875 149.863281 243.765625 150.367188 243.261719 C 150.875 242.753906 151.402344 242.273438 151.957031 241.820312 C 152.511719 241.367188 153.085938 240.941406 153.679688 240.542969 C 154.277344 240.144531 154.890625 239.777344 155.519531 239.441406 C 156.152344 239.101562 156.796875 238.796875 157.460938 238.523438 C 158.121094 238.25 158.792969 238.007812 159.480469 237.800781 C 160.164062 237.59375 160.855469 237.417969 161.558594 237.277344 C 162.261719 237.140625 162.96875 237.035156 163.679688 236.964844 C 164.394531 236.894531 165.109375 236.859375 165.824219 236.859375 L 209.539062 236.859375 C 210.253906 236.859375 210.96875 236.894531 211.679688 236.964844 C 212.394531 237.035156 213.101562 237.140625 213.800781 237.277344 C 214.503906 237.417969 215.199219 237.59375 215.882812 237.800781 C 216.566406 238.007812 217.242188 238.25 217.902344 238.523438 C 218.5625 238.796875 219.210938 239.101562 219.839844 239.441406 C 220.472656 239.777344 221.085938 240.144531 221.679688 240.542969 C 222.277344 240.941406 222.851562 241.367188 223.402344 241.820312 C 223.957031 242.273438 224.488281 242.753906 224.992188 243.261719 C 225.5 243.765625 225.980469 244.296875 226.433594 244.851562 C 226.886719 245.402344 227.3125 245.976562 227.710938 246.574219 C 228.109375 247.167969 228.476562 247.78125 228.8125 248.414062 C 229.152344 249.042969 229.457031 249.691406 229.730469 250.351562 C 230.003906 251.011719 230.246094 251.6875 230.453125 252.371094 C 230.660156 253.058594 230.835938 253.75 230.976562 254.453125 C 231.113281 255.15625 231.21875 255.863281 231.289062 256.574219 C 231.359375 257.285156 231.394531 258 231.394531 258.714844 C 231.394531 259.074219 231.359375 259.429688 231.289062 259.78125 C 231.21875 260.132812 231.117188 260.476562 230.980469 260.808594 C 230.839844 261.140625 230.671875 261.453125 230.472656 261.753906 C 230.273438 262.050781 230.046875 262.328125 229.792969 262.582031 C 229.539062 262.835938 229.265625 263.058594 228.964844 263.261719 C 228.667969 263.460938 228.351562 263.628906 228.023438 263.765625 C 227.691406 263.902344 227.347656 264.003906 226.996094 264.074219 C 226.644531 264.144531 226.289062 264.179688 225.929688 264.179688 Z M 156.363281 253.253906 L 218.996094 253.253906 C 218.515625 252.421875 217.9375 251.667969 217.261719 250.988281 C 216.582031 250.3125 215.828125 249.734375 215 249.253906 C 214.167969 248.773438 213.289062 248.410156 212.363281 248.160156 C 211.4375 247.914062 210.496094 247.789062 209.539062 247.789062 L 165.824219 247.789062 C 164.863281 247.789062 163.921875 247.914062 162.996094 248.160156 C 162.070312 248.410156 161.191406 248.773438 160.363281 249.253906 C 159.53125 249.734375 158.777344 250.3125 158.101562 250.988281 C 157.421875 251.667969 156.84375 252.421875 156.363281 253.253906 Z M 156.363281 253.253906 " fill-opacity="1" fill-rule="nonzero"/></g><path fill="#000000" d="M 165.824219 176.753906 C 165.097656 176.753906 164.402344 176.613281 163.734375 176.335938 C 163.0625 176.058594 162.472656 175.664062 161.960938 175.152344 L 151.03125 164.222656 C 150.777344 163.96875 150.550781 163.691406 150.351562 163.394531 C 150.152344 163.097656 149.984375 162.78125 149.847656 162.449219 C 149.710938 162.117188 149.605469 161.777344 149.535156 161.425781 C 149.46875 161.074219 149.433594 160.71875 149.433594 160.359375 C 149.433594 160 149.46875 159.644531 149.535156 159.292969 C 149.605469 158.941406 149.710938 158.601562 149.847656 158.269531 C 149.984375 157.9375 150.152344 157.621094 150.351562 157.324219 C 150.550781 157.027344 150.777344 156.75 151.03125 156.496094 L 161.960938 145.566406 C 162.214844 145.320312 162.492188 145.101562 162.789062 144.910156 C 163.089844 144.714844 163.402344 144.554688 163.730469 144.421875 C 164.0625 144.292969 164.398438 144.191406 164.75 144.128906 C 165.097656 144.0625 165.449219 144.03125 165.804688 144.035156 C 166.160156 144.035156 166.511719 144.074219 166.855469 144.144531 C 167.203125 144.21875 167.542969 144.320312 167.871094 144.457031 C 168.195312 144.597656 168.507812 144.761719 168.800781 144.960938 C 169.097656 145.160156 169.371094 145.382812 169.621094 145.632812 C 169.871094 145.886719 170.09375 146.15625 170.292969 146.453125 C 170.492188 146.746094 170.660156 147.058594 170.796875 147.386719 C 170.933594 147.710938 171.039062 148.050781 171.109375 148.398438 C 171.179688 148.746094 171.21875 149.09375 171.21875 149.449219 C 171.222656 149.804688 171.191406 150.15625 171.128906 150.503906 C 171.0625 150.855469 170.964844 151.195312 170.832031 151.523438 C 170.699219 151.851562 170.539062 152.167969 170.34375 152.464844 C 170.152344 152.761719 169.933594 153.039062 169.6875 153.292969 L 162.621094 160.359375 L 169.6875 167.425781 C 170.070312 167.808594 170.386719 168.234375 170.640625 168.710938 C 170.894531 169.1875 171.078125 169.691406 171.183594 170.222656 C 171.289062 170.753906 171.3125 171.285156 171.261719 171.824219 C 171.207031 172.359375 171.078125 172.878906 170.871094 173.378906 C 170.664062 173.878906 170.390625 174.335938 170.046875 174.753906 C 169.703125 175.171875 169.308594 175.53125 168.859375 175.832031 C 168.410156 176.132812 167.925781 176.359375 167.410156 176.515625 C 166.890625 176.671875 166.363281 176.753906 165.824219 176.753906 Z M 165.824219 176.753906 " fill-opacity="1" fill-rule="nonzero"/><path fill="#000000" d="M 209.539062 176.753906 C 208.996094 176.753906 208.46875 176.671875 207.953125 176.515625 C 207.433594 176.359375 206.953125 176.132812 206.503906 175.832031 C 206.054688 175.53125 205.65625 175.171875 205.316406 174.753906 C 204.972656 174.335938 204.699219 173.878906 204.492188 173.378906 C 204.285156 172.878906 204.152344 172.359375 204.101562 171.824219 C 204.046875 171.285156 204.074219 170.753906 204.179688 170.222656 C 204.285156 169.691406 204.464844 169.1875 204.71875 168.710938 C 204.972656 168.234375 205.292969 167.808594 205.675781 167.425781 L 212.738281 160.359375 L 205.675781 153.292969 C 205.429688 153.039062 205.207031 152.761719 205.015625 152.464844 C 204.824219 152.167969 204.660156 151.851562 204.53125 151.523438 C 204.398438 151.195312 204.300781 150.855469 204.234375 150.503906 C 204.167969 150.15625 204.136719 149.804688 204.140625 149.449219 C 204.144531 149.09375 204.179688 148.746094 204.253906 148.398438 C 204.324219 148.050781 204.429688 147.710938 204.566406 147.386719 C 204.703125 147.058594 204.871094 146.746094 205.066406 146.453125 C 205.265625 146.15625 205.492188 145.886719 205.742188 145.632812 C 205.992188 145.382812 206.265625 145.160156 206.558594 144.960938 C 206.855469 144.761719 207.164062 144.597656 207.492188 144.457031 C 207.820312 144.320312 208.15625 144.21875 208.503906 144.144531 C 208.851562 144.074219 209.203125 144.035156 209.558594 144.035156 C 209.914062 144.03125 210.265625 144.0625 210.613281 144.128906 C 210.960938 144.191406 211.300781 144.292969 211.628906 144.421875 C 211.960938 144.554688 212.273438 144.714844 212.570312 144.910156 C 212.871094 145.101562 213.144531 145.320312 213.402344 145.566406 L 224.328125 156.496094 C 224.582031 156.75 224.808594 157.027344 225.007812 157.324219 C 225.207031 157.621094 225.375 157.9375 225.515625 158.269531 C 225.652344 158.601562 225.753906 158.941406 225.824219 159.292969 C 225.894531 159.644531 225.929688 160 225.929688 160.359375 C 225.929688 160.71875 225.894531 161.074219 225.824219 161.425781 C 225.753906 161.777344 225.652344 162.117188 225.515625 162.449219 C 225.375 162.78125 225.207031 163.097656 225.007812 163.394531 C 224.808594 163.691406 224.582031 163.96875 224.328125 164.222656 L 213.402344 175.152344 C 212.886719 175.664062 212.296875 176.058594 211.628906 176.335938 C 210.957031 176.613281 210.261719 176.753906 209.539062 176.753906 Z M 209.539062 176.753906 " fill-opacity="1" fill-rule="nonzero"/><path fill="#000000" d="M 182.214844 176.753906 C 181.984375 176.753906 181.753906 176.738281 181.523438 176.707031 C 181.292969 176.679688 181.066406 176.632812 180.84375 176.574219 C 180.617188 176.515625 180.398438 176.445312 180.183594 176.359375 C 179.96875 176.273438 179.757812 176.171875 179.558594 176.058594 C 179.355469 175.945312 179.160156 175.820312 178.972656 175.683594 C 178.785156 175.546875 178.609375 175.398438 178.441406 175.238281 C 178.273438 175.078125 178.117188 174.90625 177.972656 174.726562 C 177.828125 174.546875 177.691406 174.355469 177.570312 174.160156 C 177.449219 173.960938 177.339844 173.757812 177.246094 173.546875 C 177.148438 173.335938 177.066406 173.121094 176.996094 172.898438 C 176.929688 172.675781 176.875 172.453125 176.835938 172.222656 C 176.796875 171.996094 176.769531 171.765625 176.761719 171.535156 C 176.75 171.300781 176.753906 171.070312 176.773438 170.839844 C 176.792969 170.609375 176.824219 170.378906 176.875 170.152344 C 176.921875 169.925781 176.984375 169.703125 177.0625 169.484375 C 177.136719 169.265625 177.226562 169.054688 177.332031 168.84375 L 188.261719 146.988281 C 188.421875 146.667969 188.609375 146.363281 188.832031 146.082031 C 189.050781 145.796875 189.296875 145.539062 189.566406 145.300781 C 189.839844 145.066406 190.128906 144.859375 190.441406 144.683594 C 190.753906 144.503906 191.078125 144.359375 191.417969 144.246094 C 191.761719 144.132812 192.109375 144.050781 192.464844 144.007812 C 192.820312 143.960938 193.175781 143.953125 193.535156 143.976562 C 193.894531 144.003906 194.246094 144.0625 194.59375 144.15625 C 194.9375 144.253906 195.273438 144.378906 195.59375 144.539062 C 195.914062 144.699219 196.214844 144.890625 196.5 145.109375 C 196.785156 145.332031 197.042969 145.574219 197.277344 145.847656 C 197.515625 146.117188 197.71875 146.410156 197.898438 146.722656 C 198.078125 147.03125 198.222656 147.359375 198.335938 147.699219 C 198.449219 148.039062 198.527344 148.386719 198.574219 148.746094 C 198.617188 149.101562 198.628906 149.457031 198.601562 149.816406 C 198.578125 150.175781 198.519531 150.527344 198.421875 150.871094 C 198.328125 151.21875 198.203125 151.550781 198.042969 151.875 L 187.113281 173.730469 C 186.886719 174.183594 186.601562 174.601562 186.257812 174.976562 C 185.914062 175.351562 185.527344 175.671875 185.09375 175.9375 C 184.660156 176.203125 184.203125 176.40625 183.710938 176.546875 C 183.222656 176.683594 182.726562 176.753906 182.214844 176.753906 Z M 182.214844 176.753906 " fill-opacity="1" fill-rule="nonzero"/><g clip-path="url(#6b84452309)"><path fill="#000000" d="M 258.714844 209.539062 L 116.644531 209.539062 C 116.285156 209.539062 115.929688 209.503906 115.578125 209.433594 C 115.226562 209.363281 114.886719 209.257812 114.554688 209.121094 C 114.222656 208.984375 113.90625 208.816406 113.609375 208.617188 C 113.3125 208.417969 113.035156 208.191406 112.78125 207.9375 C 112.527344 207.683594 112.300781 207.40625 112.101562 207.109375 C 111.902344 206.8125 111.734375 206.496094 111.597656 206.164062 C 111.460938 205.832031 111.355469 205.492188 111.285156 205.140625 C 111.214844 204.789062 111.179688 204.433594 111.179688 204.074219 C 111.179688 203.714844 111.214844 203.359375 111.285156 203.007812 C 111.355469 202.65625 111.460938 202.3125 111.597656 201.984375 C 111.734375 201.652344 111.902344 201.335938 112.101562 201.039062 C 112.300781 200.738281 112.527344 200.464844 112.78125 200.210938 C 113.035156 199.957031 113.3125 199.730469 113.609375 199.53125 C 113.90625 199.332031 114.222656 199.164062 114.554688 199.023438 C 114.886719 198.886719 115.226562 198.785156 115.578125 198.714844 C 115.929688 198.644531 116.285156 198.609375 116.644531 198.609375 L 258.714844 198.609375 C 259.074219 198.609375 259.429688 198.644531 259.78125 198.714844 C 260.132812 198.785156 260.476562 198.886719 260.808594 199.023438 C 261.140625 199.164062 261.453125 199.332031 261.753906 199.53125 C 262.050781 199.730469 262.328125 199.957031 262.582031 200.210938 C 262.835938 200.464844 263.058594 200.738281 263.261719 201.039062 C 263.460938 201.335938 263.628906 201.652344 263.765625 201.984375 C 263.902344 202.3125 264.003906 202.65625 264.074219 203.007812 C 264.144531 203.359375 264.179688 203.714844 264.179688 204.074219 C 264.179688 204.433594 264.144531 204.789062 264.074219 205.140625 C 264.003906 205.492188 263.902344 205.832031 263.765625 206.164062 C 263.628906 206.496094 263.460938 206.8125 263.261719 207.109375 C 263.058594 207.40625 262.835938 207.683594 262.582031 207.9375 C 262.328125 208.191406 262.050781 208.417969 261.753906 208.617188 C 261.453125 208.816406 261.140625 208.984375 260.808594 209.121094 C 260.476562 209.257812 260.132812 209.363281 259.78125 209.433594 C 259.429688 209.503906 259.074219 209.539062 258.714844 209.539062 Z M 258.714844 209.539062 " fill-opacity="1" fill-rule="nonzero"/></g></svg>