<svg xmlns="http://www.w3.org/2000/svg" xmlns:xlink="http://www.w3.org/1999/xlink" version="1.1" enable-background="new 0 0 512 512" viewBox="11 11 490 489.98">
  <g>
    <g>
      <path d="m315.7,362l70.8,66.9v-93.7c0-7.3 3.4-14 9.2-18.2 40.3-29.2 62.5-68.1 62.5-109.5 0-83.9-90.7-152.2-202.1-152.2-111.4,0-202.1,68.3-202.1,152.2s90.6,152.3 202,152.3c14.1,0 28.2-1.4 41.9-3.3 5.9-0.9 13.8,1.8 17.8,5.5zm77.8,133.7l-99.3-93.9c-12.6,1.6-25.4,2.4-38.2,2.4-135.1,0-245-88.2-245-196.6 0-108.4 109.9-196.6 245-196.6 135.1,0 245,88.2 245,196.6 0,52.1-26,102.2-71.6,138.9v132.8c0,8.8-5,16.8-12.8,20.3-2.8,1.3-14.7,3.6-23.1-3.9z"/>
      <path d="m333.4,278.8h-154.8c-11.8,0-21.5-9.9-21.5-22.2 0-12.3 9.6-22.2 21.5-22.2h154.8c11.8,0 21.5,9.9 21.5,22.2 0,12.2-9.6,22.2-21.5,22.2z"/>
      <path d="m333.4,177.9h-154.8c-11.8,0-21.5-9.9-21.5-22.2 0-12.3 9.6-22.2 21.5-22.2h154.8c11.8,0 21.5,9.9 21.5,22.2 0,12.3-9.6,22.2-21.5,22.2z"/>
    </g>
  </g>
</svg>