<?xml version="1.0" encoding="iso-8859-1"?>
<!-- Generator: Adobe Illustrator 19.0.0, SVG Export Plug-In . SVG Version: 6.00 Build 0)  -->
<svg version="1.1" id="Capa_1" xmlns="http://www.w3.org/2000/svg" xmlns:xlink="http://www.w3.org/1999/xlink" x="0px" y="0px"
	 viewBox="0 0 489.459 489.459" style="enable-background:new 0 0 489.459 489.459;" xml:space="preserve">
<g>
	<path d="M489.229,20.559L489.229,20.559c0-20.5-26.7-28.6-37.9-10.3l-97.2,168.2l-91.4-167.8c-8.7-13.5-26.9-14.8-35.5-0.3
		l-95.8,168.2l-93.6-168c-9.5-15.6-37.6-11.2-37.6,13.9v365l0,0c0,0,0,0,0,0.1c0,65.5,122.8,99.9,244.5,99.9s244.5-34.3,244.5-99.9
		c0,0,0,0,0-0.1l0,0V20.559z M148.929,230.359l95.6-167.9l91.2,167.5c9.4,16,26.1,15.8,35.4,0.5l76.5-132.3v233.1
		c-46.3-27.4-124.8-41.6-202.9-41.6c-78.7,0-157.8,14.4-203.9,42.2v-232.4l72.8,130.7
		C122.129,244.659,140.329,244.659,148.929,230.359z M244.729,449.859c-132.1,0-203.9-38.5-203.9-59.3s71.8-59.3,203.9-59.3
		s203.9,38.5,203.9,59.3S376.829,449.859,244.729,449.859z"/>
</g>
<g>
</g>
<g>
</g>
<g>
</g>
<g>
</g>
<g>
</g>
<g>
</g>
<g>
</g>
<g>
</g>
<g>
</g>
<g>
</g>
<g>
</g>
<g>
</g>
<g>
</g>
<g>
</g>
<g>
</g>
</svg>
