<svg xmlns="http://www.w3.org/2000/svg" xmlns:xlink="http://www.w3.org/1999/xlink" width="500" zoomAndPan="magnify" viewBox="0 0 375 374.999991" height="500" preserveAspectRatio="xMidYMid meet" version="1.0"><defs><clipPath id="7d5f5e327b"><path d="M 18.824219 18.824219 L 356.324219 18.824219 L 356.324219 356.324219 L 18.824219 356.324219 Z M 18.824219 18.824219 " clip-rule="nonzero"/></clipPath></defs><g clip-path="url(#7d5f5e327b)"><path fill="#000000" d="M 187.574219 356.324219 C 142.484375 356.324219 100.09375 338.773438 68.234375 306.914062 C 36.371094 275.050781 18.824219 232.664062 18.824219 187.574219 C 18.824219 142.484375 36.371094 100.09375 68.234375 68.234375 C 100.09375 36.371094 142.484375 18.824219 187.574219 18.824219 C 232.664062 18.824219 275.050781 36.371094 306.914062 68.234375 C 338.773438 100.09375 356.324219 142.484375 356.324219 187.574219 C 356.324219 232.664062 338.773438 275.050781 306.914062 306.914062 C 275.050781 338.773438 232.664062 356.324219 187.574219 356.324219 Z M 187.574219 25.574219 C 98.269531 25.574219 25.574219 98.269531 25.574219 187.574219 C 25.574219 276.875 98.269531 349.574219 187.574219 349.574219 C 276.875 349.574219 349.574219 276.875 349.574219 187.574219 C 349.574219 98.269531 276.875 25.574219 187.574219 25.574219 Z M 187.574219 25.574219 " fill-opacity="1" fill-rule="nonzero"/></g><path fill="#000000" d="M 187.574219 316.835938 C 116.292969 316.835938 58.308594 258.851562 58.308594 187.574219 C 58.308594 116.292969 116.292969 58.308594 187.574219 58.308594 C 258.851562 58.308594 316.835938 116.292969 316.835938 187.574219 C 316.835938 258.851562 258.851562 316.835938 187.574219 316.835938 Z M 187.574219 65.058594 C 120.003906 65.058594 65.058594 120.003906 65.058594 187.574219 C 65.058594 255.140625 120.003906 310.085938 187.574219 310.085938 C 255.140625 310.085938 310.085938 255.140625 310.085938 187.574219 C 310.085938 120.003906 255.140625 65.058594 187.574219 65.058594 Z M 187.574219 65.058594 " fill-opacity="1" fill-rule="nonzero"/><path fill="#000000" d="M 189.125 339.246094 L 188.988281 327.09375 C 189.867188 327.09375 190.746094 327.09375 191.554688 327.027344 L 191.894531 339.175781 C 191.015625 339.175781 190.070312 339.246094 189.125 339.246094 Z M 182.105469 339.109375 C 181.160156 339.109375 180.214844 339.042969 179.269531 338.976562 L 179.945312 326.824219 C 180.824219 326.894531 181.699219 326.894531 182.511719 326.960938 Z M 198.914062 338.839844 L 198.035156 326.757812 C 198.914062 326.691406 199.722656 326.621094 200.601562 326.554688 L 201.746094 338.636719 C 200.800781 338.636719 199.859375 338.773438 198.914062 338.839844 Z M 172.25 338.503906 C 171.304688 338.433594 170.359375 338.300781 169.484375 338.164062 L 170.898438 326.082031 C 171.777344 326.148438 172.585938 326.285156 173.464844 326.351562 Z M 208.699219 337.761719 L 207.011719 325.746094 C 207.890625 325.609375 208.699219 325.476562 209.578125 325.339844 L 211.46875 337.355469 C 210.589844 337.488281 209.644531 337.625 208.699219 337.761719 Z M 162.53125 337.21875 C 161.585938 337.085938 160.707031 336.882812 159.761719 336.746094 L 161.988281 324.800781 C 162.867188 324.933594 163.675781 325.136719 164.554688 325.273438 Z M 218.421875 336.074219 L 215.921875 324.191406 C 216.800781 323.988281 217.609375 323.855469 218.488281 323.652344 L 221.1875 335.53125 C 220.242188 335.667969 219.363281 335.871094 218.421875 336.074219 Z M 152.878906 335.261719 C 151.933594 335.058594 151.054688 334.859375 150.109375 334.585938 L 153.082031 322.84375 C 153.890625 323.046875 154.769531 323.246094 155.578125 323.449219 Z M 228.003906 333.777344 L 224.765625 322.03125 C 225.574219 321.832031 226.453125 321.558594 227.261719 321.289062 L 230.707031 332.96875 C 229.761719 333.238281 228.882812 333.507812 228.003906 333.777344 Z M 143.359375 332.699219 C 142.484375 332.425781 141.539062 332.15625 140.660156 331.820312 L 144.441406 320.277344 C 145.25 320.546875 146.058594 320.816406 146.9375 321.019531 Z M 237.386719 330.808594 L 233.40625 319.332031 C 234.214844 319.0625 235.023438 318.726562 235.835938 318.457031 L 240.019531 329.863281 C 239.144531 330.199219 238.265625 330.539062 237.386719 330.808594 Z M 134.046875 329.523438 C 133.167969 329.1875 132.289062 328.851562 131.414062 328.511719 L 135.933594 317.238281 C 136.746094 317.578125 137.554688 317.847656 138.363281 318.183594 Z M 246.566406 327.296875 L 241.84375 316.09375 C 242.652344 315.753906 243.394531 315.417969 244.207031 315.082031 L 249.132812 326.148438 C 248.253906 326.554688 247.378906 326.960938 246.566406 327.296875 Z M 124.933594 325.8125 C 124.054688 325.40625 123.246094 325.003906 122.367188 324.597656 L 127.566406 313.664062 C 128.375 314 129.117188 314.40625 129.925781 314.742188 Z M 255.476562 323.179688 L 250.011719 312.3125 C 250.753906 311.90625 251.5625 311.503906 252.304688 311.164062 L 257.976562 321.898438 C 257.097656 322.371094 256.289062 322.773438 255.476562 323.179688 Z M 116.023438 321.425781 C 115.210938 320.953125 114.402344 320.546875 113.523438 320.074219 L 119.464844 309.476562 C 120.207031 309.882812 120.949219 310.289062 121.761719 310.691406 Z M 264.117188 318.523438 L 257.976562 308.058594 C 258.71875 307.65625 259.460938 307.183594 260.203125 306.710938 L 266.546875 317.105469 C 265.671875 317.578125 264.925781 318.050781 264.117188 318.523438 Z M 107.519531 316.496094 C 106.707031 316.023438 105.898438 315.484375 105.15625 315.011719 L 111.769531 304.820312 C 112.511719 305.292969 113.253906 305.765625 113.929688 306.238281 Z M 272.421875 313.257812 L 265.601562 303.199219 C 266.34375 302.726562 267.019531 302.253906 267.695312 301.714844 L 274.714844 311.636719 C 273.972656 312.175781 273.164062 312.71875 272.421875 313.257812 Z M 99.351562 311.03125 C 98.609375 310.488281 97.796875 309.949219 97.054688 309.34375 L 104.277344 299.554688 C 104.953125 300.09375 105.695312 300.566406 106.371094 301.109375 Z M 280.386719 307.519531 L 272.960938 297.933594 C 273.636719 297.394531 274.308594 296.855469 274.984375 296.316406 L 282.613281 305.765625 C 281.871094 306.371094 281.128906 306.914062 280.386719 307.519531 Z M 91.519531 305.023438 C 90.777344 304.414062 90.101562 303.808594 89.359375 303.199219 L 97.191406 293.953125 C 97.863281 294.492188 98.539062 295.03125 99.148438 295.574219 Z M 287.945312 301.242188 L 279.914062 292.128906 C 280.585938 291.589844 281.195312 290.984375 281.800781 290.375 L 290.039062 299.351562 C 289.363281 299.960938 288.621094 300.636719 287.945312 301.242188 Z M 84.09375 298.609375 C 83.421875 298.003906 82.746094 297.328125 82.070312 296.652344 L 90.507812 287.945312 C 91.113281 288.550781 91.722656 289.160156 92.398438 289.699219 Z M 295.101562 294.492188 L 286.460938 285.921875 C 287.066406 285.3125 287.675781 284.707031 288.28125 284.097656 L 297.058594 292.46875 C 296.382812 293.144531 295.773438 293.816406 295.101562 294.492188 Z M 77.074219 291.65625 C 76.398438 290.984375 75.792969 290.308594 75.183594 289.566406 L 84.164062 281.398438 C 84.769531 282.003906 85.308594 282.679688 85.917969 283.289062 Z M 301.78125 287.269531 L 292.671875 279.238281 C 293.210938 278.5625 293.816406 277.957031 294.359375 277.28125 L 303.671875 285.109375 C 302.996094 285.851562 302.390625 286.59375 301.78125 287.269531 Z M 70.59375 284.300781 C 69.988281 283.558594 69.378906 282.882812 68.839844 282.140625 L 78.359375 274.582031 C 78.898438 275.253906 79.4375 275.929688 79.976562 276.605469 Z M 308.058594 279.644531 L 298.40625 272.285156 C 298.949219 271.609375 299.421875 270.933594 299.960938 270.191406 L 309.746094 277.414062 C 309.140625 278.15625 308.601562 278.898438 308.058594 279.644531 Z M 64.585938 276.539062 C 64.046875 275.796875 63.507812 275.050781 62.96875 274.242188 L 72.957031 267.289062 C 73.429688 267.964844 73.96875 268.707031 74.441406 269.382812 Z M 313.796875 271.675781 L 303.671875 264.925781 C 304.144531 264.183594 304.617188 263.511719 305.089844 262.769531 L 315.351562 269.316406 C 314.808594 270.058594 314.269531 270.867188 313.796875 271.675781 Z M 59.050781 268.371094 C 58.582031 267.558594 58.039062 266.75 57.566406 266.007812 L 67.960938 259.730469 C 68.433594 260.472656 68.839844 261.214844 69.3125 261.957031 Z M 318.996094 263.308594 L 308.464844 257.234375 C 308.871094 256.488281 309.34375 255.746094 309.746094 255.003906 L 320.414062 260.878906 C 319.871094 261.6875 319.46875 262.496094 318.996094 263.308594 Z M 54.058594 259.933594 C 53.585938 259.121094 53.179688 258.3125 52.707031 257.433594 L 63.507812 251.832031 C 63.914062 252.574219 64.316406 253.386719 64.722656 254.128906 Z M 323.585938 254.601562 L 312.71875 249.199219 C 313.121094 248.457031 313.460938 247.648438 313.863281 246.835938 L 324.867188 252.035156 C 324.460938 252.914062 324.058594 253.789062 323.585938 254.601562 Z M 49.671875 251.15625 C 49.265625 250.28125 48.925781 249.46875 48.523438 248.59375 L 59.660156 243.664062 C 59.996094 244.476562 60.335938 245.21875 60.738281 246.027344 Z M 327.703125 245.621094 L 316.496094 240.964844 C 316.835938 240.15625 317.171875 239.34375 317.441406 238.535156 L 328.714844 242.988281 C 328.378906 243.867188 328.039062 244.746094 327.703125 245.621094 Z M 45.824219 242.113281 C 45.484375 241.234375 45.148438 240.359375 44.808594 239.480469 L 56.21875 235.296875 C 56.488281 236.105469 56.824219 236.914062 57.09375 237.726562 Z M 331.210938 236.375 L 319.738281 232.460938 C 320.007812 231.648438 320.277344 230.839844 320.546875 229.960938 L 332.089844 233.675781 C 331.753906 234.621094 331.484375 235.496094 331.210938 236.375 Z M 42.582031 232.796875 C 42.3125 231.921875 42.042969 231.042969 41.773438 230.097656 L 53.449219 226.65625 C 53.71875 227.464844 53.921875 228.34375 54.191406 229.152344 Z M 334.046875 226.992188 L 322.300781 223.820312 C 322.503906 223.011719 322.707031 222.132812 322.976562 221.324219 L 334.789062 224.226562 C 334.519531 225.171875 334.316406 226.046875 334.046875 226.992188 Z M 39.949219 223.347656 C 39.746094 222.46875 39.546875 221.523438 39.34375 220.582031 L 51.222656 217.949219 C 51.425781 218.757812 51.628906 219.636719 51.832031 220.445312 Z M 336.273438 217.40625 L 324.394531 215.046875 C 324.53125 214.234375 324.734375 213.359375 324.867188 212.480469 L 336.816406 214.640625 C 336.679688 215.519531 336.476562 216.460938 336.273438 217.40625 Z M 37.925781 213.695312 C 37.789062 212.75 37.585938 211.871094 37.453125 210.925781 L 49.46875 209.039062 C 49.601562 209.914062 49.738281 210.726562 49.871094 211.601562 Z M 337.894531 207.6875 L 325.878906 206.066406 C 326.015625 205.191406 326.082031 204.378906 326.21875 203.503906 L 338.300781 204.851562 C 338.164062 205.796875 338.03125 206.742188 337.894531 207.6875 Z M 36.574219 203.976562 C 36.507812 203.03125 36.371094 202.085938 36.304688 201.207031 L 48.386719 200.128906 C 48.457031 201.003906 48.523438 201.816406 48.65625 202.691406 Z M 338.90625 197.898438 L 326.757812 197.089844 C 326.824219 196.210938 326.894531 195.402344 326.894531 194.523438 L 339.042969 195.132812 C 338.976562 196.011719 338.976562 196.957031 338.90625 197.898438 Z M 35.832031 194.121094 C 35.765625 193.175781 35.765625 192.230469 35.765625 191.351562 L 47.914062 191.015625 C 47.914062 191.894531 47.984375 192.769531 47.984375 193.582031 Z M 339.246094 188.046875 L 327.09375 187.976562 L 327.09375 187.4375 C 327.09375 186.761719 327.09375 186.085938 327.09375 185.414062 L 339.246094 185.210938 C 339.246094 185.953125 339.246094 186.695312 339.246094 187.4375 Z M 47.847656 184.535156 L 35.699219 184.265625 C 35.699219 183.320312 35.765625 182.375 35.765625 181.429688 L 47.914062 181.902344 C 47.914062 182.847656 47.914062 183.726562 47.847656 184.535156 Z M 326.824219 178.933594 C 326.757812 178.054688 326.691406 177.175781 326.621094 176.367188 L 338.773438 175.421875 C 338.839844 176.367188 338.90625 177.3125 338.976562 178.257812 Z M 48.320312 175.488281 L 36.238281 174.476562 C 36.304688 173.53125 36.371094 172.585938 36.507812 171.710938 L 48.589844 172.925781 C 48.523438 173.800781 48.457031 174.679688 48.320312 175.488281 Z M 326.015625 169.957031 C 325.878906 169.078125 325.8125 168.269531 325.675781 167.390625 L 337.691406 165.636719 C 337.828125 166.582031 337.960938 167.457031 338.097656 168.402344 Z M 49.398438 166.511719 L 37.386719 164.691406 C 37.519531 163.746094 37.65625 162.867188 37.859375 161.921875 L 49.804688 163.949219 C 49.671875 164.824219 49.535156 165.703125 49.398438 166.511719 Z M 324.597656 160.976562 C 324.460938 160.101562 324.261719 159.289062 324.058594 158.414062 L 335.9375 155.914062 C 336.140625 156.859375 336.34375 157.738281 336.476562 158.683594 Z M 51.019531 157.601562 L 39.140625 155.039062 C 39.34375 154.09375 39.546875 153.214844 39.746094 152.269531 L 51.558594 155.105469 C 51.425781 155.914062 51.222656 156.792969 51.019531 157.601562 Z M 322.574219 152.203125 C 322.371094 151.394531 322.101562 150.515625 321.898438 149.707031 L 333.574219 146.398438 C 333.84375 147.273438 334.046875 148.21875 334.316406 149.097656 Z M 53.246094 148.828125 L 41.570312 145.453125 C 41.839844 144.574219 42.109375 143.628906 42.378906 142.753906 L 53.988281 146.332031 C 53.71875 147.207031 53.519531 148.019531 53.246094 148.828125 Z M 320.007812 143.496094 C 319.738281 142.683594 319.46875 141.875 319.199219 141.066406 L 330.671875 137.015625 C 331.011719 137.894531 331.28125 138.769531 331.550781 139.648438 Z M 56.015625 140.253906 L 44.609375 136.136719 C 44.945312 135.261719 45.28125 134.382812 45.621094 133.503906 L 56.960938 137.824219 C 56.621094 138.566406 56.351562 139.378906 56.015625 140.253906 Z M 316.902344 134.988281 C 316.566406 134.179688 316.226562 133.371094 315.890625 132.628906 L 327.09375 127.835938 C 327.433594 128.710938 327.835938 129.523438 328.175781 130.398438 Z M 59.390625 131.816406 L 48.253906 126.957031 C 48.65625 126.082031 48.996094 125.269531 49.398438 124.394531 L 60.46875 129.457031 C 60.066406 130.199219 59.726562 131.007812 59.390625 131.816406 Z M 313.257812 126.753906 C 312.851562 126.011719 312.515625 125.203125 312.109375 124.460938 L 322.976562 118.992188 C 323.382812 119.800781 323.789062 120.679688 324.191406 121.488281 Z M 63.304688 123.582031 L 52.503906 118.046875 C 52.910156 117.238281 53.382812 116.359375 53.789062 115.550781 L 64.453125 121.289062 C 64.046875 122.097656 63.644531 122.839844 63.304688 123.582031 Z M 309.003906 118.722656 C 308.601562 117.980469 308.128906 117.238281 307.722656 116.496094 L 318.183594 110.285156 C 318.65625 111.09375 319.128906 111.90625 319.601562 112.714844 Z M 67.691406 115.683594 L 57.296875 109.40625 C 57.769531 108.597656 58.242188 107.789062 58.78125 106.976562 L 69.109375 113.390625 C 68.570312 114.199219 68.164062 114.941406 67.691406 115.683594 Z M 304.347656 111.027344 C 303.875 110.285156 303.402344 109.609375 302.929688 108.867188 L 312.988281 102.050781 C 313.527344 102.792969 314.066406 103.601562 314.539062 104.414062 Z M 72.621094 108.058594 L 62.628906 101.171875 C 63.171875 100.429688 63.710938 99.621094 64.25 98.878906 L 74.105469 105.964844 C 73.566406 106.640625 73.09375 107.382812 72.621094 108.058594 Z M 299.148438 103.671875 C 298.609375 102.996094 298.136719 102.320312 297.597656 101.644531 L 307.183594 94.152344 C 307.789062 94.894531 308.332031 95.636719 308.871094 96.378906 Z M 78.019531 100.769531 L 68.503906 93.207031 C 69.109375 92.464844 69.648438 91.722656 70.257812 91.046875 L 79.640625 98.742188 C 79.101562 99.417969 78.558594 100.09375 78.019531 100.769531 Z M 293.480469 96.582031 C 292.941406 95.90625 292.332031 95.300781 291.792969 94.625 L 300.835938 86.523438 C 301.445312 87.199219 302.050781 87.941406 302.660156 88.617188 Z M 83.824219 93.882812 L 74.847656 85.714844 C 75.457031 85.039062 76.128906 84.296875 76.738281 83.621094 L 85.582031 91.925781 C 85.039062 92.601562 84.433594 93.207031 83.824219 93.882812 Z M 287.335938 89.898438 C 286.730469 89.292969 286.121094 88.683594 285.515625 88.078125 L 294.019531 79.4375 C 294.695312 80.113281 295.371094 80.789062 295.976562 81.460938 Z M 90.171875 87.335938 L 81.664062 78.628906 C 82.339844 77.953125 83.015625 77.34375 83.691406 76.671875 L 91.992188 85.511719 C 91.386719 86.1875 90.777344 86.726562 90.171875 87.335938 Z M 280.789062 83.621094 C 280.113281 83.015625 279.507812 82.476562 278.832031 81.933594 L 286.796875 72.753906 C 287.472656 73.363281 288.214844 73.96875 288.890625 74.644531 Z M 96.851562 81.261719 L 88.957031 72.011719 C 89.699219 71.40625 90.371094 70.796875 91.113281 70.191406 L 98.808594 79.574219 C 98.136719 80.179688 97.460938 80.71875 96.851562 81.261719 Z M 273.90625 77.816406 C 273.230469 77.277344 272.554688 76.738281 271.878906 76.265625 L 279.238281 66.613281 C 279.980469 67.152344 280.722656 67.761719 281.464844 68.367188 Z M 103.871094 75.589844 L 96.582031 65.871094 C 97.324219 65.332031 98.066406 64.722656 98.878906 64.183594 L 105.964844 74.039062 C 105.289062 74.578125 104.613281 75.117188 103.871094 75.589844 Z M 266.613281 72.417969 C 265.871094 71.945312 265.199219 71.472656 264.457031 71 L 271.136719 60.875 C 271.949219 61.414062 272.691406 61.886719 273.5 62.425781 Z M 111.296875 70.394531 L 104.683594 60.199219 C 105.492188 59.660156 106.234375 59.1875 107.046875 58.714844 L 113.457031 69.042969 C 112.78125 69.515625 112.039062 69.988281 111.296875 70.394531 Z M 258.988281 67.558594 C 258.246094 67.085938 257.503906 66.679688 256.761719 66.273438 L 262.769531 55.746094 C 263.578125 56.21875 264.386719 56.691406 265.199219 57.164062 Z M 119.058594 65.734375 L 113.121094 55.136719 C 113.929688 54.664062 114.738281 54.261719 115.550781 53.789062 L 121.289062 64.453125 C 120.546875 64.925781 119.800781 65.332031 119.058594 65.734375 Z M 251.023438 63.101562 C 250.28125 62.699219 249.46875 62.292969 248.726562 61.957031 L 254.058594 51.019531 C 254.9375 51.425781 255.746094 51.832031 256.558594 52.300781 Z M 127.023438 61.550781 L 121.761719 50.613281 C 122.570312 50.210938 123.449219 49.804688 124.324219 49.398438 L 129.386719 60.46875 C 128.578125 60.808594 127.835938 61.210938 127.023438 61.550781 Z M 242.855469 59.253906 C 242.046875 58.917969 241.234375 58.582031 240.492188 58.242188 L 245.082031 46.96875 C 245.960938 47.308594 246.835938 47.710938 247.714844 48.050781 Z M 135.328125 57.90625 L 130.804688 46.632812 C 131.683594 46.296875 132.558594 45.957031 133.4375 45.621094 L 137.757812 56.960938 C 136.878906 57.296875 136.136719 57.566406 135.328125 57.90625 Z M 234.417969 55.949219 C 233.609375 55.675781 232.796875 55.40625 231.988281 55.070312 L 235.835938 43.527344 C 236.710938 43.796875 237.589844 44.136719 238.535156 44.472656 Z M 143.832031 54.800781 L 140.050781 43.257812 C 140.929688 42.988281 141.808594 42.648438 142.753906 42.378906 L 146.332031 53.988281 C 145.453125 54.261719 144.644531 54.53125 143.832031 54.800781 Z M 225.777344 53.179688 C 224.96875 52.976562 224.089844 52.707031 223.28125 52.503906 L 226.386719 40.761719 C 227.261719 41.03125 228.207031 41.234375 229.085938 41.503906 Z M 152.472656 52.234375 L 149.433594 40.488281 C 150.3125 40.289062 151.257812 40.019531 152.136719 39.816406 L 154.96875 51.628906 C 154.160156 51.832031 153.351562 52.03125 152.472656 52.234375 Z M 217.003906 50.953125 C 216.191406 50.75 215.316406 50.613281 214.4375 50.414062 L 216.800781 38.464844 C 217.746094 38.667969 218.621094 38.800781 219.566406 39.003906 Z M 161.316406 50.277344 L 159.085938 38.332031 C 160.03125 38.128906 160.910156 37.992188 161.855469 37.859375 L 163.878906 49.804688 C 163.003906 50.007812 162.191406 50.144531 161.316406 50.277344 Z M 208.09375 49.332031 C 207.214844 49.199219 206.40625 49.0625 205.527344 48.996094 L 207.082031 36.914062 C 208.023438 37.046875 208.96875 37.183594 209.847656 37.316406 Z M 170.292969 48.925781 L 168.808594 36.84375 C 169.753906 36.710938 170.699219 36.644531 171.574219 36.507812 L 172.859375 48.589844 C 171.980469 48.726562 171.101562 48.792969 170.292969 48.925781 Z M 199.113281 48.320312 C 198.238281 48.253906 197.425781 48.183594 196.550781 48.117188 L 197.359375 35.96875 C 198.304688 36.035156 199.25 36.101562 200.195312 36.171875 Z M 179.269531 48.050781 L 178.59375 35.898438 C 179.539062 35.832031 180.484375 35.832031 181.429688 35.765625 L 181.902344 47.914062 C 181.023438 47.984375 180.148438 48.050781 179.269531 48.050781 Z M 190.070312 47.847656 C 189.191406 47.847656 188.316406 47.847656 187.503906 47.847656 L 187.503906 35.699219 C 188.449219 35.699219 189.394531 35.699219 190.339844 35.699219 Z M 190.070312 47.847656 " fill-opacity="1" fill-rule="nonzero"/><path fill="#100f0d" d="M 137.1875 118.105469 C 137.1875 118.644531 137.160156 119.175781 137.109375 119.710938 C 137.054688 120.246094 136.976562 120.773438 136.871094 121.300781 C 136.765625 121.828125 136.636719 122.347656 136.480469 122.859375 C 136.324219 123.375 136.144531 123.878906 135.941406 124.375 C 135.734375 124.867188 135.503906 125.351562 135.253906 125.824219 C 135 126.300781 134.726562 126.757812 134.425781 127.203125 C 134.128906 127.648438 133.808594 128.082031 133.46875 128.496094 C 133.128906 128.910156 132.769531 129.308594 132.390625 129.6875 C 132.011719 130.066406 131.613281 130.425781 131.199219 130.765625 C 130.785156 131.105469 130.355469 131.425781 129.910156 131.722656 C 129.460938 132.019531 129.003906 132.296875 128.53125 132.546875 C 128.058594 132.800781 127.574219 133.03125 127.078125 133.234375 C 126.582031 133.441406 126.078125 133.621094 125.5625 133.777344 C 125.050781 133.933594 124.53125 134.0625 124.003906 134.167969 C 123.480469 134.273438 122.949219 134.351562 122.414062 134.402344 C 121.882812 134.457031 121.347656 134.484375 120.808594 134.484375 C 120.273438 134.484375 119.738281 134.457031 119.207031 134.402344 C 118.671875 134.351562 118.140625 134.273438 117.617188 134.167969 C 117.089844 134.0625 116.570312 133.933594 116.058594 133.777344 C 115.542969 133.621094 115.039062 133.441406 114.542969 133.234375 C 114.046875 133.03125 113.5625 132.800781 113.089844 132.546875 C 112.617188 132.296875 112.160156 132.019531 111.710938 131.722656 C 111.265625 131.425781 110.835938 131.105469 110.421875 130.765625 C 110.007812 130.425781 109.609375 130.066406 109.230469 129.6875 C 108.851562 129.308594 108.492188 128.910156 108.152344 128.496094 C 107.8125 128.082031 107.492188 127.648438 107.195312 127.203125 C 106.894531 126.757812 106.621094 126.300781 106.367188 125.824219 C 106.113281 125.351562 105.886719 124.867188 105.679688 124.375 C 105.476562 123.878906 105.296875 123.375 105.140625 122.859375 C 104.984375 122.347656 104.855469 121.828125 104.75 121.300781 C 104.644531 120.773438 104.566406 120.246094 104.511719 119.710938 C 104.460938 119.175781 104.433594 118.644531 104.433594 118.105469 C 104.433594 117.570312 104.460938 117.035156 104.511719 116.5 C 104.566406 115.96875 104.644531 115.4375 104.75 114.910156 C 104.855469 114.386719 104.984375 113.867188 105.140625 113.351562 C 105.296875 112.839844 105.476562 112.335938 105.679688 111.839844 C 105.886719 111.34375 106.113281 110.859375 106.367188 110.386719 C 106.621094 109.914062 106.894531 109.453125 107.195312 109.007812 C 107.492188 108.5625 107.8125 108.132812 108.152344 107.71875 C 108.492188 107.304688 108.851562 106.90625 109.230469 106.527344 C 109.609375 106.148438 110.007812 105.789062 110.421875 105.449219 C 110.835938 105.105469 111.265625 104.789062 111.710938 104.488281 C 112.160156 104.191406 112.617188 103.917969 113.089844 103.664062 C 113.5625 103.410156 114.046875 103.183594 114.542969 102.976562 C 115.039062 102.769531 115.542969 102.589844 116.058594 102.433594 C 116.570312 102.28125 117.089844 102.148438 117.617188 102.042969 C 118.140625 101.941406 118.671875 101.863281 119.207031 101.808594 C 119.738281 101.757812 120.273438 101.730469 120.808594 101.730469 C 121.347656 101.730469 121.882812 101.757812 122.414062 101.808594 C 122.949219 101.863281 123.480469 101.941406 124.003906 102.042969 C 124.53125 102.148438 125.050781 102.28125 125.5625 102.433594 C 126.078125 102.589844 126.582031 102.769531 127.078125 102.976562 C 127.574219 103.183594 128.058594 103.410156 128.53125 103.664062 C 129.003906 103.917969 129.460938 104.191406 129.910156 104.488281 C 130.355469 104.789062 130.785156 105.105469 131.199219 105.449219 C 131.613281 105.789062 132.011719 106.148438 132.390625 106.527344 C 132.769531 106.90625 133.128906 107.304688 133.46875 107.71875 C 133.808594 108.132812 134.128906 108.5625 134.425781 109.007812 C 134.726562 109.453125 135 109.914062 135.253906 110.386719 C 135.503906 110.859375 135.734375 111.34375 135.941406 111.839844 C 136.144531 112.335938 136.324219 112.839844 136.480469 113.351562 C 136.636719 113.867188 136.765625 114.386719 136.871094 114.910156 C 136.976562 115.4375 137.054688 115.96875 137.109375 116.5 C 137.160156 117.035156 137.1875 117.570312 137.1875 118.105469 Z M 137.1875 118.105469 " fill-opacity="1" fill-rule="nonzero"/><path fill="#100f0d" d="M 134.730469 172.148438 L 197.777344 235.195312 C 190.410156 235.195312 182.222656 233.558594 174.851562 231.101562 C 171.578125 230.28125 160.113281 228.644531 155.199219 232.738281 C 144.554688 243.382812 135.550781 257.304688 130.636719 262.214844 C 125.722656 267.128906 118.355469 265.492188 110.984375 258.121094 C 104.433594 251.570312 101.976562 243.382812 106.890625 238.472656 C 112.621094 234.375 126.542969 224.550781 137.1875 214.726562 C 142.097656 209.8125 139.644531 196.710938 138.824219 195.074219 C 135.550781 187.703125 134.730469 179.515625 134.730469 172.148438 Z M 249.363281 120.5625 C 219.066406 89.449219 178.125 100.910156 152.742188 125.476562 C 143.738281 134.484375 137.1875 145.945312 135.550781 158.226562 L 211.699219 234.375 C 223.980469 231.921875 235.445312 226.1875 244.449219 217.183594 C 269.015625 191.800781 280.476562 150.859375 249.363281 120.5625 Z M 249.363281 120.5625 " fill-opacity="1" fill-rule="nonzero"/></svg>