<svg xmlns="http://www.w3.org/2000/svg" xmlns:xlink="http://www.w3.org/1999/xlink" version="1.1" id="Layer_1" x="0px" y="0px" style="enable-background:new 0 0 310.745 310.745;" xml:space="preserve" viewBox="0 12.62 310.74 285.5">
<g id="XMLID_341_">
	<path id="XMLID_348_" d="M77.622,120.372c9.942,0,19.137-3.247,26.593-8.728c11.382,16.007,30.063,26.479,51.157,26.479   c21.093,0,39.774-10.472,51.157-26.479c7.456,5.481,16.651,8.728,26.593,8.728c24.813,0,45-20.187,45-44.999   c0-24.814-20.187-45.001-45-45.001c-9.943,0-19.138,3.248-26.594,8.729c-11.383-16.006-30.063-26.478-51.156-26.478   c-21.093,0-39.773,10.472-51.156,26.478c-7.456-5.481-16.651-8.729-26.594-8.729c-24.813,0-45,20.187-45,45.001   C32.622,100.186,52.809,120.372,77.622,120.372z M233.122,60.372c8.271,0,15,6.73,15,15.001c0,8.271-6.729,14.999-15,14.999   c-8.271,0-15-6.729-15-14.999C218.122,67.102,224.851,60.372,233.122,60.372z M155.372,42.623c18.059,0,32.75,14.691,32.75,32.75   s-14.691,32.75-32.75,32.75c-18.059,0-32.75-14.691-32.75-32.75S137.313,42.623,155.372,42.623z M77.622,60.372   c8.271,0,15,6.73,15,15.001c0,8.271-6.729,14.999-15,14.999s-15-6.729-15-14.999C62.622,67.102,69.351,60.372,77.622,60.372z"/>
	<path id="XMLID_440_" d="M233.122,150.372c-19.643,0-38.329,7.388-52.584,20.532c-8.103-1.816-16.523-2.781-25.166-2.781   c-8.643,0-17.063,0.965-25.165,2.781c-14.255-13.144-32.942-20.532-52.585-20.532C34.821,150.372,0,185.194,0,227.995   c0,8.284,6.716,15,15,15h32.6c-4.669,12.5-7.228,26.019-7.228,40.127c0,8.284,6.716,15,15,15h200c8.284,0,15-6.716,15-15   c0-14.108-2.559-27.627-7.229-40.127h32.602c8.284,0,15-6.716,15-15C310.745,185.194,275.923,150.372,233.122,150.372z    M32.42,212.995c6.298-18.934,24.181-32.623,45.202-32.623c6.617,0,13.052,1.382,18.964,3.95   c-12.484,7.456-23.443,17.209-32.29,28.673H32.42z M71.697,268.122c7.106-39.739,41.923-69.999,83.675-69.999   c41.751,0,76.569,30.26,83.675,69.999H71.697z M246.449,212.995c-8.848-11.464-19.806-21.217-32.29-28.673   c5.912-2.567,12.347-3.95,18.964-3.95c21.021,0,38.905,13.689,45.203,32.623H246.449z"/>
</g>
<g>
</g>
<g>
</g>
<g>
</g>
<g>
</g>
<g>
</g>
<g>
</g>
<g>
</g>
<g>
</g>
<g>
</g>
<g>
</g>
<g>
</g>
<g>
</g>
<g>
</g>
<g>
</g>
<g>
</g>
</svg>