<svg xmlns="http://www.w3.org/2000/svg" xmlns:xlink="http://www.w3.org/1999/xlink" width="500" zoomAndPan="magnify" viewBox="0 0 375 374.999991" height="500" preserveAspectRatio="xMidYMid meet" version="1.0"><defs><clipPath id="01f38efdc5"><path d="M 18.800781 18.800781 L 356.300781 18.800781 L 356.300781 356.300781 L 18.800781 356.300781 Z M 18.800781 18.800781 " clip-rule="nonzero"/></clipPath><clipPath id="e6a6581b83"><path d="M 102 91 L 272.964844 91 L 272.964844 292.550781 L 102 292.550781 Z M 102 91 " clip-rule="nonzero"/></clipPath></defs><g clip-path="url(#01f38efdc5)"><path fill="#000000" d="M 187.550781 356.300781 C 142.460938 356.300781 100.070312 338.75 68.210938 306.890625 C 36.351562 275.03125 18.800781 232.640625 18.800781 187.550781 C 18.800781 142.460938 36.351562 100.070312 68.210938 68.210938 C 100.070312 36.351562 142.460938 18.800781 187.550781 18.800781 C 232.640625 18.800781 275.03125 36.351562 306.890625 68.210938 C 338.75 100.070312 356.300781 142.460938 356.300781 187.550781 C 356.300781 232.640625 338.75 275.03125 306.890625 306.890625 C 275.03125 338.75 232.640625 356.300781 187.550781 356.300781 Z M 187.550781 25.550781 C 98.246094 25.550781 25.550781 98.246094 25.550781 187.550781 C 25.550781 276.851562 98.246094 349.550781 187.550781 349.550781 C 276.851562 349.550781 349.550781 276.851562 349.550781 187.550781 C 349.550781 98.246094 276.851562 25.550781 187.550781 25.550781 Z M 187.550781 25.550781 " fill-opacity="1" fill-rule="nonzero"/></g><path fill="#000000" d="M 187.550781 316.8125 C 116.269531 316.8125 58.289062 258.832031 58.289062 187.550781 C 58.289062 116.269531 116.269531 58.289062 187.550781 58.289062 C 258.832031 58.289062 316.8125 116.269531 316.8125 187.550781 C 316.8125 258.832031 258.832031 316.8125 187.550781 316.8125 Z M 187.550781 65.039062 C 119.984375 65.039062 65.039062 119.984375 65.039062 187.550781 C 65.039062 255.117188 119.984375 310.0625 187.550781 310.0625 C 255.117188 310.0625 310.0625 255.117188 310.0625 187.550781 C 310.0625 119.984375 255.117188 65.039062 187.550781 65.039062 Z M 187.550781 65.039062 " fill-opacity="1" fill-rule="nonzero"/><path fill="#000000" d="M 189.101562 339.222656 L 188.96875 327.074219 C 189.84375 327.074219 190.722656 327.074219 191.53125 327.003906 L 191.871094 339.15625 C 190.992188 339.15625 190.046875 339.222656 189.101562 339.222656 Z M 182.082031 339.085938 C 181.136719 339.085938 180.191406 339.019531 179.246094 338.953125 L 179.921875 326.800781 C 180.800781 326.871094 181.675781 326.871094 182.488281 326.9375 Z M 198.890625 338.816406 L 198.011719 326.734375 C 198.890625 326.667969 199.699219 326.601562 200.578125 326.53125 L 201.726562 338.613281 C 200.78125 338.613281 199.835938 338.75 198.890625 338.816406 Z M 172.226562 338.480469 C 171.28125 338.414062 170.335938 338.277344 169.460938 338.144531 L 170.878906 326.058594 C 171.753906 326.128906 172.566406 326.261719 173.441406 326.332031 Z M 208.675781 337.738281 L 206.988281 325.722656 C 207.867188 325.585938 208.675781 325.453125 209.554688 325.316406 L 211.445312 337.332031 C 210.566406 337.46875 209.621094 337.601562 208.675781 337.738281 Z M 162.507812 337.199219 C 161.5625 337.0625 160.683594 336.859375 159.738281 336.726562 L 161.96875 324.777344 C 162.84375 324.914062 163.65625 325.113281 164.53125 325.25 Z M 218.398438 336.050781 L 215.898438 324.171875 C 216.777344 323.96875 217.585938 323.832031 218.464844 323.628906 L 221.164062 335.511719 C 220.21875 335.644531 219.34375 335.847656 218.398438 336.050781 Z M 152.855469 335.238281 C 151.910156 335.039062 151.03125 334.835938 150.085938 334.566406 L 153.058594 322.820312 C 153.867188 323.023438 154.746094 323.226562 155.554688 323.425781 Z M 227.984375 333.753906 L 224.742188 322.011719 C 225.550781 321.808594 226.429688 321.539062 227.238281 321.269531 L 230.683594 332.945312 C 229.738281 333.214844 228.859375 333.484375 227.984375 333.753906 Z M 143.335938 332.675781 C 142.460938 332.40625 141.515625 332.136719 140.636719 331.796875 L 144.417969 320.253906 C 145.226562 320.523438 146.039062 320.796875 146.914062 320.996094 Z M 237.363281 330.785156 L 233.382812 319.308594 C 234.191406 319.039062 235.003906 318.703125 235.8125 318.433594 L 239.996094 329.839844 C 239.121094 330.175781 238.242188 330.515625 237.363281 330.785156 Z M 134.023438 329.503906 C 133.144531 329.164062 132.269531 328.828125 131.390625 328.488281 L 135.914062 317.21875 C 136.722656 317.554688 137.53125 317.824219 138.34375 318.164062 Z M 246.546875 327.273438 L 241.820312 316.070312 C 242.628906 315.734375 243.371094 315.394531 244.183594 315.058594 L 249.109375 326.128906 C 248.234375 326.53125 247.355469 326.9375 246.546875 327.273438 Z M 124.910156 325.789062 C 124.03125 325.386719 123.222656 324.980469 122.34375 324.574219 L 127.542969 313.640625 C 128.351562 313.976562 129.09375 314.382812 129.90625 314.71875 Z M 255.457031 323.15625 L 249.988281 312.289062 C 250.730469 311.886719 251.539062 311.480469 252.28125 311.144531 L 257.953125 321.875 C 257.074219 322.347656 256.265625 322.753906 255.457031 323.15625 Z M 116 321.402344 C 115.191406 320.929688 114.378906 320.523438 113.503906 320.050781 L 119.441406 309.457031 C 120.183594 309.859375 120.925781 310.265625 121.738281 310.671875 Z M 264.09375 318.5 L 257.953125 308.039062 C 258.695312 307.632812 259.4375 307.160156 260.179688 306.6875 L 266.523438 317.082031 C 265.648438 317.554688 264.90625 318.027344 264.09375 318.5 Z M 107.496094 316.476562 C 106.683594 316.003906 105.875 315.460938 105.132812 314.988281 L 111.746094 304.796875 C 112.488281 305.269531 113.234375 305.742188 113.90625 306.214844 Z M 272.398438 313.234375 L 265.582031 303.175781 C 266.324219 302.707031 266.996094 302.234375 267.671875 301.691406 L 274.691406 311.613281 C 273.949219 312.15625 273.140625 312.695312 272.398438 313.234375 Z M 99.328125 311.007812 C 98.585938 310.46875 97.773438 309.925781 97.03125 309.320312 L 104.253906 299.53125 C 104.929688 300.074219 105.671875 300.546875 106.347656 301.085938 Z M 280.363281 307.496094 L 272.9375 297.914062 C 273.613281 297.371094 274.289062 296.832031 274.960938 296.292969 L 282.589844 305.742188 C 281.847656 306.351562 281.105469 306.890625 280.363281 307.496094 Z M 91.496094 305 C 90.753906 304.394531 90.082031 303.785156 89.335938 303.175781 L 97.167969 293.929688 C 97.84375 294.46875 98.519531 295.011719 99.125 295.550781 Z M 287.921875 301.21875 L 279.890625 292.109375 C 280.566406 291.566406 281.171875 290.960938 281.78125 290.351562 L 290.015625 299.332031 C 289.339844 299.9375 288.597656 300.613281 287.921875 301.21875 Z M 84.074219 298.585938 C 83.398438 297.980469 82.722656 297.304688 82.046875 296.628906 L 90.484375 287.921875 C 91.09375 288.53125 91.699219 289.136719 92.375 289.675781 Z M 295.078125 294.46875 L 286.4375 285.898438 C 287.046875 285.289062 287.652344 284.683594 288.261719 284.074219 L 297.035156 292.445312 C 296.359375 293.121094 295.753906 293.796875 295.078125 294.46875 Z M 77.050781 291.636719 C 76.378906 290.960938 75.769531 290.285156 75.164062 289.542969 L 84.140625 281.375 C 84.746094 281.984375 85.289062 282.65625 85.894531 283.265625 Z M 301.761719 287.246094 L 292.648438 279.214844 C 293.1875 278.539062 293.796875 277.933594 294.335938 277.257812 L 303.648438 285.085938 C 302.976562 285.832031 302.367188 286.574219 301.761719 287.246094 Z M 70.574219 284.277344 C 69.964844 283.535156 69.359375 282.859375 68.816406 282.117188 L 78.335938 274.558594 C 78.875 275.234375 79.414062 275.90625 79.957031 276.582031 Z M 308.039062 279.621094 L 298.386719 272.261719 C 298.925781 271.585938 299.398438 270.914062 299.9375 270.171875 L 309.726562 277.394531 C 309.117188 278.136719 308.578125 278.878906 308.039062 279.621094 Z M 64.566406 276.515625 C 64.023438 275.773438 63.484375 275.03125 62.945312 274.21875 L 72.933594 267.269531 C 73.40625 267.941406 73.949219 268.683594 74.421875 269.359375 Z M 313.773438 271.65625 L 303.648438 264.90625 C 304.121094 264.164062 304.59375 263.488281 305.066406 262.746094 L 315.328125 269.292969 C 314.789062 270.035156 314.246094 270.84375 313.773438 271.65625 Z M 59.03125 268.347656 C 58.558594 267.539062 58.019531 266.726562 57.546875 265.984375 L 67.941406 259.707031 C 68.414062 260.449219 68.816406 261.191406 69.289062 261.933594 Z M 318.972656 263.285156 L 308.441406 257.210938 C 308.847656 256.46875 309.320312 255.726562 309.726562 254.984375 L 320.390625 260.855469 C 319.851562 261.664062 319.445312 262.476562 318.972656 263.285156 Z M 54.035156 259.910156 C 53.5625 259.101562 53.15625 258.289062 52.683594 257.414062 L 63.484375 251.808594 C 63.890625 252.550781 64.296875 253.363281 64.699219 254.105469 Z M 323.5625 254.578125 L 312.695312 249.175781 C 313.101562 248.433594 313.4375 247.625 313.84375 246.816406 L 324.84375 252.011719 C 324.441406 252.890625 324.035156 253.769531 323.5625 254.578125 Z M 49.648438 251.136719 C 49.242188 250.257812 48.90625 249.449219 48.5 248.570312 L 59.636719 243.644531 C 59.976562 244.453125 60.3125 245.195312 60.71875 246.003906 Z M 327.679688 245.601562 L 316.476562 240.941406 C 316.8125 240.132812 317.148438 239.324219 317.421875 238.511719 L 328.691406 242.96875 C 328.355469 243.84375 328.019531 244.722656 327.679688 245.601562 Z M 45.800781 242.089844 C 45.460938 241.210938 45.125 240.335938 44.789062 239.457031 L 56.195312 235.273438 C 56.464844 236.082031 56.800781 236.894531 57.074219 237.703125 Z M 331.191406 236.351562 L 319.714844 232.4375 C 319.984375 231.628906 320.253906 230.816406 320.523438 229.941406 L 332.066406 233.652344 C 331.730469 234.597656 331.460938 235.476562 331.191406 236.351562 Z M 42.558594 232.773438 C 42.289062 231.898438 42.019531 231.019531 41.75 230.074219 L 53.425781 226.632812 C 53.699219 227.441406 53.898438 228.320312 54.171875 229.128906 Z M 334.023438 226.96875 L 322.28125 223.796875 C 322.484375 222.988281 322.683594 222.109375 322.957031 221.300781 L 334.769531 224.203125 C 334.496094 225.148438 334.296875 226.023438 334.023438 226.96875 Z M 39.925781 223.324219 C 39.726562 222.449219 39.523438 221.503906 39.320312 220.558594 L 51.199219 217.925781 C 51.402344 218.734375 51.605469 219.613281 51.808594 220.421875 Z M 336.253906 217.386719 L 324.371094 215.023438 C 324.507812 214.210938 324.710938 213.335938 324.84375 212.457031 L 336.792969 214.617188 C 336.65625 215.496094 336.457031 216.441406 336.253906 217.386719 Z M 37.902344 213.671875 C 37.769531 212.726562 37.566406 211.851562 37.429688 210.90625 L 49.445312 209.015625 C 49.582031 209.894531 49.714844 210.703125 49.851562 211.582031 Z M 337.871094 207.664062 L 325.859375 206.046875 C 325.992188 205.167969 326.058594 204.359375 326.195312 203.480469 L 338.277344 204.832031 C 338.144531 205.773438 338.007812 206.71875 337.871094 207.664062 Z M 36.550781 203.953125 C 36.484375 203.007812 36.351562 202.0625 36.28125 201.183594 L 48.363281 200.105469 C 48.433594 200.984375 48.5 201.792969 48.636719 202.671875 Z M 338.886719 197.878906 L 326.734375 197.066406 C 326.800781 196.191406 326.871094 195.378906 326.871094 194.503906 L 339.019531 195.109375 C 338.953125 195.988281 338.953125 196.933594 338.886719 197.878906 Z M 35.808594 194.097656 C 35.742188 193.152344 35.742188 192.207031 35.742188 191.332031 L 47.894531 190.992188 C 47.894531 191.871094 47.960938 192.746094 47.960938 193.558594 Z M 339.222656 188.023438 L 327.074219 187.957031 L 327.074219 187.414062 C 327.074219 186.738281 327.074219 186.066406 327.074219 185.390625 L 339.222656 185.1875 C 339.222656 185.929688 339.222656 186.671875 339.222656 187.414062 Z M 47.824219 184.511719 L 35.675781 184.242188 C 35.675781 183.296875 35.742188 182.351562 35.742188 181.40625 L 47.894531 181.878906 C 47.894531 182.824219 47.894531 183.703125 47.824219 184.511719 Z M 326.800781 178.910156 C 326.734375 178.03125 326.667969 177.15625 326.601562 176.34375 L 338.75 175.398438 C 338.816406 176.34375 338.886719 177.289062 338.953125 178.234375 Z M 48.296875 175.46875 L 36.214844 174.457031 C 36.28125 173.511719 36.351562 172.566406 36.484375 171.6875 L 48.566406 172.902344 C 48.5 173.78125 48.433594 174.65625 48.296875 175.46875 Z M 325.992188 169.933594 C 325.859375 169.054688 325.789062 168.246094 325.65625 167.367188 L 337.671875 165.613281 C 337.804688 166.558594 337.941406 167.433594 338.074219 168.378906 Z M 49.378906 166.488281 L 37.363281 164.667969 C 37.496094 163.722656 37.632812 162.84375 37.835938 161.898438 L 49.78125 163.925781 C 49.648438 164.800781 49.511719 165.679688 49.378906 166.488281 Z M 324.574219 160.957031 C 324.441406 160.078125 324.238281 159.269531 324.035156 158.390625 L 335.914062 155.894531 C 336.117188 156.835938 336.320312 157.714844 336.457031 158.660156 Z M 50.996094 157.582031 L 39.117188 155.015625 C 39.320312 154.070312 39.523438 153.191406 39.726562 152.246094 L 51.539062 155.082031 C 51.402344 155.894531 51.199219 156.769531 50.996094 157.582031 Z M 322.550781 152.179688 C 322.347656 151.371094 322.078125 150.492188 321.875 149.683594 L 333.550781 146.375 C 333.824219 147.253906 334.023438 148.199219 334.296875 149.074219 Z M 53.226562 148.804688 L 41.546875 145.429688 C 41.816406 144.550781 42.085938 143.609375 42.359375 142.730469 L 53.96875 146.308594 C 53.699219 147.183594 53.496094 147.996094 53.226562 148.804688 Z M 319.984375 143.472656 C 319.714844 142.664062 319.445312 141.851562 319.175781 141.042969 L 330.648438 136.992188 C 330.988281 137.871094 331.257812 138.746094 331.527344 139.625 Z M 55.992188 140.234375 L 44.585938 136.113281 C 44.921875 135.238281 45.261719 134.359375 45.597656 133.484375 L 56.9375 137.800781 C 56.601562 138.546875 56.332031 139.355469 55.992188 140.234375 Z M 316.878906 134.96875 C 316.542969 134.15625 316.207031 133.347656 315.867188 132.605469 L 327.074219 127.8125 C 327.410156 128.691406 327.816406 129.5 328.152344 130.378906 Z M 59.367188 131.796875 L 48.230469 126.933594 C 48.636719 126.058594 48.972656 125.246094 49.378906 124.371094 L 60.449219 129.433594 C 60.042969 130.175781 59.707031 130.984375 59.367188 131.796875 Z M 313.234375 126.734375 C 312.832031 125.988281 312.492188 125.179688 312.085938 124.4375 L 322.957031 118.96875 C 323.359375 119.78125 323.765625 120.65625 324.171875 121.46875 Z M 63.28125 123.558594 L 52.484375 118.023438 C 52.886719 117.214844 53.359375 116.335938 53.765625 115.527344 L 64.429688 121.265625 C 64.023438 122.074219 63.621094 122.816406 63.28125 123.558594 Z M 308.984375 118.699219 C 308.578125 117.957031 308.105469 117.214844 307.699219 116.472656 L 318.164062 110.261719 C 318.636719 111.074219 319.109375 111.882812 319.582031 112.691406 Z M 67.671875 115.664062 L 57.273438 109.386719 C 57.746094 108.574219 58.21875 107.765625 58.761719 106.957031 L 69.085938 113.367188 C 68.546875 114.175781 68.144531 114.921875 67.671875 115.664062 Z M 304.324219 111.003906 C 303.851562 110.261719 303.378906 109.585938 302.90625 108.84375 L 312.964844 102.027344 C 313.503906 102.769531 314.046875 103.582031 314.519531 104.390625 Z M 72.597656 108.035156 L 62.609375 101.148438 C 63.148438 100.40625 63.6875 99.597656 64.226562 98.855469 L 74.082031 105.941406 C 73.542969 106.617188 73.070312 107.359375 72.597656 108.035156 Z M 299.128906 103.648438 C 298.585938 102.972656 298.113281 102.296875 297.574219 101.621094 L 307.160156 94.128906 C 307.769531 94.871094 308.308594 95.613281 308.847656 96.359375 Z M 77.996094 100.746094 L 68.480469 93.183594 C 69.085938 92.441406 69.628906 91.699219 70.234375 91.023438 L 79.617188 98.71875 C 79.078125 99.394531 78.539062 100.070312 77.996094 100.746094 Z M 293.457031 96.558594 C 292.917969 95.886719 292.308594 95.277344 291.769531 94.601562 L 300.816406 86.503906 C 301.421875 87.175781 302.03125 87.921875 302.636719 88.59375 Z M 83.800781 93.859375 L 74.824219 85.691406 C 75.433594 85.019531 76.109375 84.273438 76.714844 83.601562 L 85.558594 91.902344 C 85.019531 92.578125 84.410156 93.183594 83.800781 93.859375 Z M 287.316406 89.878906 C 286.707031 89.269531 286.101562 88.664062 285.492188 88.054688 L 293.996094 79.414062 C 294.671875 80.089844 295.347656 80.765625 295.957031 81.441406 Z M 90.148438 87.3125 L 81.644531 78.605469 C 82.316406 77.929688 82.992188 77.324219 83.667969 76.648438 L 91.96875 85.488281 C 91.363281 86.164062 90.753906 86.707031 90.148438 87.3125 Z M 280.769531 83.601562 C 280.09375 82.992188 279.484375 82.453125 278.808594 81.914062 L 286.773438 72.734375 C 287.449219 73.339844 288.191406 73.949219 288.867188 74.621094 Z M 96.832031 81.238281 L 88.933594 71.988281 C 89.675781 71.382812 90.351562 70.773438 91.09375 70.167969 L 98.789062 79.550781 C 98.113281 80.15625 97.4375 80.699219 96.832031 81.238281 Z M 273.882812 77.796875 C 273.207031 77.253906 272.53125 76.714844 271.859375 76.242188 L 279.214844 66.589844 C 279.957031 67.128906 280.699219 67.738281 281.441406 68.34375 Z M 103.851562 75.566406 L 96.558594 65.847656 C 97.300781 65.308594 98.046875 64.699219 98.855469 64.160156 L 105.941406 74.015625 C 105.269531 74.554688 104.59375 75.09375 103.851562 75.566406 Z M 266.59375 72.394531 C 265.851562 71.921875 265.175781 71.449219 264.433594 70.976562 L 271.113281 60.851562 C 271.925781 61.394531 272.667969 61.863281 273.476562 62.40625 Z M 111.273438 70.371094 L 104.660156 60.175781 C 105.46875 59.636719 106.210938 59.164062 107.023438 58.691406 L 113.433594 69.019531 C 112.761719 69.492188 112.019531 69.964844 111.273438 70.371094 Z M 258.964844 67.535156 C 258.222656 67.0625 257.480469 66.65625 256.738281 66.253906 L 262.746094 55.722656 C 263.554688 56.195312 264.363281 56.667969 265.175781 57.140625 Z M 119.039062 65.710938 L 113.097656 55.113281 C 113.90625 54.644531 114.71875 54.238281 115.527344 53.765625 L 121.265625 64.429688 C 120.523438 64.902344 119.78125 65.308594 119.039062 65.710938 Z M 251 63.082031 C 250.257812 62.675781 249.449219 62.269531 248.707031 61.933594 L 254.039062 50.996094 C 254.914062 51.402344 255.726562 51.808594 256.535156 52.28125 Z M 127.003906 61.527344 L 121.738281 50.59375 C 122.546875 50.1875 123.425781 49.78125 124.300781 49.378906 L 129.363281 60.449219 C 128.554688 60.785156 127.8125 61.191406 127.003906 61.527344 Z M 242.832031 59.234375 C 242.023438 58.894531 241.210938 58.558594 240.46875 58.21875 L 245.058594 46.949219 C 245.9375 47.285156 246.816406 47.691406 247.691406 48.027344 Z M 135.304688 57.882812 L 130.78125 46.609375 C 131.660156 46.273438 132.539062 45.933594 133.414062 45.597656 L 137.734375 56.9375 C 136.859375 57.273438 136.113281 57.546875 135.304688 57.882812 Z M 234.394531 55.925781 C 233.585938 55.65625 232.773438 55.386719 231.964844 55.046875 L 235.8125 43.503906 C 236.691406 43.773438 237.566406 44.113281 238.511719 44.449219 Z M 143.808594 54.777344 L 140.03125 43.234375 C 140.90625 42.964844 141.785156 42.628906 142.730469 42.359375 L 146.308594 53.96875 C 145.429688 54.238281 144.621094 54.507812 143.808594 54.777344 Z M 225.753906 53.15625 C 224.945312 52.957031 224.066406 52.683594 223.257812 52.484375 L 226.363281 40.738281 C 227.238281 41.007812 228.183594 41.210938 229.0625 41.480469 Z M 152.449219 52.210938 L 149.414062 40.46875 C 150.289062 40.265625 151.234375 39.996094 152.113281 39.792969 L 154.949219 51.605469 C 154.136719 51.808594 153.328125 52.011719 152.449219 52.210938 Z M 216.980469 50.929688 C 216.171875 50.726562 215.292969 50.59375 214.414062 50.390625 L 216.777344 38.441406 C 217.722656 38.644531 218.601562 38.78125 219.546875 38.984375 Z M 161.292969 50.253906 L 159.066406 38.308594 C 160.011719 38.105469 160.886719 37.96875 161.832031 37.835938 L 163.859375 49.78125 C 162.980469 49.984375 162.171875 50.121094 161.292969 50.253906 Z M 208.070312 49.308594 C 207.191406 49.175781 206.382812 49.039062 205.503906 48.972656 L 207.058594 36.890625 C 208.003906 37.023438 208.949219 37.160156 209.824219 37.296875 Z M 170.269531 48.90625 L 168.785156 36.824219 C 169.730469 36.6875 170.675781 36.621094 171.550781 36.484375 L 172.835938 48.566406 C 171.957031 48.703125 171.082031 48.769531 170.269531 48.90625 Z M 199.09375 48.296875 C 198.214844 48.230469 197.40625 48.164062 196.527344 48.09375 L 197.335938 35.945312 C 198.28125 36.011719 199.226562 36.082031 200.171875 36.148438 Z M 179.246094 48.027344 L 178.574219 35.878906 C 179.519531 35.808594 180.460938 35.808594 181.40625 35.742188 L 181.878906 47.894531 C 181.003906 47.960938 180.125 48.027344 179.246094 48.027344 Z M 190.046875 47.824219 C 189.171875 47.824219 188.292969 47.824219 187.484375 47.824219 L 187.484375 35.675781 C 188.425781 35.675781 189.371094 35.675781 190.316406 35.675781 Z M 190.046875 47.824219 " fill-opacity="1" fill-rule="nonzero"/><g clip-path="url(#e6a6581b83)"><path fill="#100f0d" d="M 162.5 225.585938 L 162.5 208.957031 C 159.488281 207.566406 156.539062 205.945312 153.738281 204.050781 L 122.976562 251.019531 L 136.429688 250.171875 L 139.460938 260.753906 Z M 155.691406 192.421875 C 187.78125 218.632812 238.265625 196.691406 238.265625 153.101562 C 238.265625 96.667969 159.101562 82.507812 140.039062 136.070312 C 134.265625 152.429688 135.3125 175.816406 155.691406 192.421875 Z M 202.199219 273.25 L 202.199219 212.429688 C 192.085938 214.945312 182.394531 214.828125 173.035156 212.546875 L 173.035156 273.886719 L 189.132812 264.847656 Z M 252.292969 251.019531 L 221.472656 203.988281 C 218.273438 206.097656 215.6875 207.414062 212.734375 208.746094 L 212.734375 225.585938 L 235.769531 260.753906 L 238.839844 250.171875 Z M 229.773438 197.410156 L 272.671875 262.917969 L 246.601562 261.234375 L 239.558594 285.75 L 212.734375 244.816406 L 212.734375 292.566406 L 188.78125 277.136719 L 162.5 291.929688 L 162.5 244.816406 L 135.699219 285.75 L 128.632812 261.234375 L 102.5625 262.917969 L 145.460938 197.445312 C 105.925781 159.960938 132.007812 91.875 187.628906 91.875 C 243.226562 91.875 269.367188 160.171875 229.773438 197.410156 " fill-opacity="1" fill-rule="nonzero"/></g><path fill="#b88917" d="M 221.472656 203.988281 L 252.292969 251.019531 L 238.839844 250.171875 L 235.769531 260.753906 L 212.734375 225.585938 L 212.734375 208.746094 C 215.6875 207.414062 218.273438 206.097656 221.472656 203.988281 " fill-opacity="1" fill-rule="nonzero"/><path fill="#ffffff" d="M 217.707031 153.101562 C 217.707031 163.28125 212.769531 172.046875 205.339844 177.378906 L 203.585938 176.0625 L 197.507812 157.253906 L 213.429688 145.648438 L 193.71875 145.648438 L 187.628906 126.855469 L 181.515625 145.648438 L 161.804688 145.648438 L 158.699219 144.898438 C 158.972656 143.96875 159.300781 143.0625 159.664062 142.132812 C 171.730469 111.132812 217.707031 120.074219 217.707031 153.101562 " fill-opacity="1" fill-rule="nonzero"/><path fill="#100f0d" d="M 213.429688 145.648438 L 197.507812 157.253906 L 203.585938 176.0625 L 187.628906 164.457031 L 171.648438 176.085938 L 177.75 157.253906 L 161.804688 145.648438 L 181.515625 145.648438 L 187.628906 126.855469 L 193.71875 145.648438 L 213.429688 145.648438 " fill-opacity="1" fill-rule="nonzero"/><path fill="#100f0d" d="M 205.339844 177.378906 C 212.769531 172.046875 217.707031 163.28125 217.707031 153.101562 C 217.707031 120.074219 171.730469 111.132812 159.664062 142.132812 C 159.300781 143.0625 158.972656 143.96875 158.699219 144.898438 C 157.890625 147.699219 157.464844 150.535156 157.464844 153.371094 C 157.464844 160.925781 160.535156 168.53125 167.285156 175.308594 C 172.789062 180.371094 180.136719 183.171875 187.628906 183.171875 C 193.144531 183.171875 198.742188 181.664062 203.796875 178.402344 C 204.304688 178.074219 204.820312 177.746094 205.339844 177.378906 Z M 187.628906 112.425781 C 227.339844 112.425781 243.53125 164.1875 210.394531 186.6875 L 210.417969 186.726562 C 187.0625 202.636719 164.957031 186.84375 164.816406 186.75 L 164.839844 186.726562 C 163.121094 185.546875 161.078125 183.886719 160.148438 183.050781 C 132.902344 157.984375 150.65625 112.425781 187.628906 112.425781 " fill-opacity="1" fill-rule="nonzero"/><path fill="#ffffff" d="M 205.339844 177.378906 C 204.820312 177.746094 204.304688 178.074219 203.796875 178.402344 C 198.742188 181.664062 193.144531 183.171875 187.628906 183.171875 C 180.136719 183.171875 172.789062 180.371094 167.285156 175.308594 C 160.535156 168.53125 157.464844 160.925781 157.464844 153.371094 C 157.464844 150.535156 157.890625 147.699219 158.699219 144.898438 L 161.804688 145.648438 L 177.75 157.253906 L 171.648438 176.085938 L 187.628906 164.457031 L 203.585938 176.0625 L 205.339844 177.378906 " fill-opacity="1" fill-rule="nonzero"/><path fill="#b88917" d="M 202.199219 212.429688 L 202.199219 273.25 L 189.132812 264.847656 L 173.035156 273.886719 L 173.035156 212.546875 C 182.394531 214.828125 192.085938 214.945312 202.199219 212.429688 " fill-opacity="1" fill-rule="nonzero"/><path fill="#b88917" d="M 210.394531 186.6875 C 243.53125 164.1875 227.339844 112.425781 187.628906 112.425781 C 150.65625 112.425781 132.902344 157.984375 160.148438 183.050781 C 161.078125 183.886719 163.121094 185.546875 164.839844 186.726562 L 164.816406 186.75 C 164.957031 186.84375 187.0625 202.636719 210.417969 186.726562 Z M 238.265625 153.101562 C 238.265625 196.691406 187.78125 218.632812 155.691406 192.421875 C 135.3125 175.816406 134.265625 152.429688 140.039062 136.070312 C 159.101562 82.507812 238.265625 96.667969 238.265625 153.101562 " fill-opacity="1" fill-rule="nonzero"/><path fill="#b88917" d="M 162.5 208.957031 L 162.5 225.585938 L 139.460938 260.753906 L 136.429688 250.171875 L 122.976562 251.019531 L 153.738281 204.050781 C 156.539062 205.945312 159.488281 207.566406 162.5 208.957031 " fill-opacity="1" fill-rule="nonzero"/></svg>